<?xml version="1.0" encoding="UTF-8"?>
<svg width="64px" height="50px" viewBox="0 0 64 50" version="1.1" xmlns="http://www.w3.org/2000/svg" xmlns:xlink="http://www.w3.org/1999/xlink">
    <!-- Generator: sketchtool 53 (72520) - https://sketchapp.com -->
    <title>759DEDD2-2436-421C-8764-EAEFC4980633</title>
    <desc>Created with sketchtool.</desc>
    <defs>
        <path d="M44.1834716,0 L44.1834716,8.66438186 C43.5249659,8.40508971 42.8197655,8.26846644 42.0943255,8.26846644 L42.0418937,8.26846644 C38.7935098,8.26846644 36.1504029,10.9881133 36.1504029,14.331976 C36.1504029,15.1093657 36.2949491,15.8521939 36.5551959,16.5361216 L0,16.5361216 L0,20.3956479 L36.5547178,20.3956479 C36.294471,21.0790888 36.1499248,21.8222415 36.1499248,22.5997934 C36.1499248,25.9431694 38.7930317,28.6634653 42.0415749,28.6634653 L42.0936881,28.6634653 C42.8197655,28.6634653 43.5249659,28.526193 44.1831529,28.2667386 L44.1831529,49.3333333 L47.9330657,49.3333333 L47.9330657,28.2467806 C48.5976274,28.5146725 49.319402,28.6634653 50.074803,28.6634653 C53.3238244,28.6634653 55.9661344,25.9431694 55.9661344,22.5997934 C55.9661344,21.821917 55.8217477,21.0790888 55.5615008,20.3956479 L64,20.3956479 L64,16.5361216 L55.5619789,16.5361216 C55.8223851,15.8521939 55.9667719,15.1093657 55.9667719,14.331976 C55.9667719,10.9881133 53.3238244,8.26846644 50.0752811,8.26846644 C49.3197207,8.26846644 48.5976274,8.41709699 47.9337032,8.68498894 L47.9337032,0 L44.1834716,0 Z M47.8315789,14.1920047 C47.8315789,13.0739553 48.7378792,12.1643836 49.8526316,12.1643836 C50.9667823,12.1643836 51.8736842,13.0739553 51.8736842,14.191557 C51.8736842,15.3096064 50.9667823,16.2191781 49.8526316,16.2191781 L47.8315789,16.2191781 L47.8315789,14.1920047 Z M41.7684962,12.1643836 L41.8176747,12.1643836 C42.34435,12.1643836 42.8397436,12.3700561 43.212116,12.7430429 C43.584338,13.1169252 43.7894737,13.6139424 43.7894737,14.142303 L43.7894737,16.2191781 L41.7684962,16.2191781 C40.6542366,16.2191781 39.7473684,15.3094725 39.7473684,14.1917062 C39.7473684,13.0734922 40.6542366,12.1643836 41.7684962,12.1643836 Z M47.8315789,20.2739726 L49.8526316,20.2739726 C50.9667823,20.2739726 51.8736842,21.1830477 51.8736842,22.3013699 C51.8736842,23.419095 50.9667823,24.3287671 49.8526316,24.3287671 C48.7378792,24.3287671 47.8315789,23.419095 47.8315789,22.3013699 L47.8315789,20.2739726 Z M41.7686466,20.2739726 L43.7894737,20.2739726 L43.7894737,22.3507713 C43.7894737,22.8791124 43.5840525,23.3761113 43.2127605,23.7490843 C42.8395135,24.1231021 42.3441568,24.3287671 41.8175206,24.3287671 L41.7686466,24.3287671 C40.6541691,24.3287671 39.7473684,23.419095 39.7473684,22.3013699 C39.7473684,21.1830477 40.6541691,20.2739726 41.7686466,20.2739726 Z" id="path-1"></path>
    </defs>
    <g id="Mobile" stroke="none" stroke-width="1" fill="none" fill-rule="evenodd">
        <g id="Home-Page-Mobile" transform="translate(-40.000000, -580.000000)">
            <g id="Group-10" transform="translate(40.000000, 573.000000)">
                <g id="Group-13" transform="translate(0.000000, 7.333333)">
                    <g id="Group-12">
                        <path d="M39.7473684,49.3333333 L5.21373821,49.3333333 C2.33460498,49.3333333 0,46.9580548 0,44.0287612 L0,5.30457215 C0,2.37527856 2.33460498,0 5.21373821,0 L23.2087201,0 L39.7473684,49.3333333 Z" id="Fill-1" fill="#E4E4E4"></path>
                        <path d="M64,5.30457215 L64,44.0287612 C64,46.9580548 61.6561267,49.3333333 58.7657236,49.3333333 L39.5496496,49.3333333 C36.1141597,38.9857621 26.1036402,9.43450244 22.9052632,0 L58.7657236,0 C61.6561267,0 64,2.37527856 64,5.30457215" id="Fill-3" fill="#FFCA28"></path>
                        <path d="M6.6568024,43.2648567 C5.5852734,43.2648567 4.71578947,42.5054577 4.71578947,41.5685014 C4.71578947,40.6320272 5.5852734,39.8721461 6.6568024,39.8721461 L14.9729074,39.8721461 C16.0444364,39.8721461 16.9139203,40.6320272 16.9139203,41.5685014 C16.9139203,42.5054577 16.0444364,43.2648567 14.972426,43.2648567 L6.6568024,43.2648567 Z" id="Fill-5" fill="#7F7E79"></path>
                        <path d="M6.67213084,36.4931507 C5.61487786,36.4931507 4.75704636,35.7368216 4.75704636,34.803653 C4.75704636,33.8704843 5.61487786,33.1141553 6.67213084,33.1141553 L21.0314356,33.1141553 C22.0891672,33.1141553 22.94652,33.8704843 22.94652,34.803653 C22.94652,35.7368216 22.0891672,36.4931507 21.0314356,36.4931507 L6.67213084,36.4931507 Z" id="Fill-14" fill="#7F7E79"></path>
                        <mask id="mask-2" fill="white">
                            <use xlink:href="#path-1"></use>
                        </mask>
                        <g id="Clip-28"></g>
                        <polygon id="Fill-27" fill="#FF5722" mask="url(#mask-2)" points="-12.8 2075.379 229.052632 2075.379 229.052632 -471.031963 -12.8 -471.031963"></polygon>
                    </g>
                </g>
            </g>
        </g>
    </g>
</svg>