<?xml version="1.0" encoding="UTF-8"?>
<svg width="48px" height="48px" viewBox="0 0 48 48" version="1.1" xmlns="http://www.w3.org/2000/svg" xmlns:xlink="http://www.w3.org/1999/xlink">
    <!-- Generator: sketchtool 53 (72520) - https://sketchapp.com -->
    <title>C717229C-6EDA-4BE7-BB46-BC78032A3896</title>
    <desc>Created with sketchtool.</desc>
    <g id="Mobile" stroke="none" stroke-width="1" fill="none" fill-rule="evenodd">
        <g id="Home-Page-Mobile" transform="translate(-34.000000, -2696.000000)">
            <g id="Group-17" transform="translate(34.000000, 2696.000000)">
                <g id="profile5">
                    <path d="M42.9,5.09790517 C46.190625,8.38869085 48,12.7576542 48,17.4078812 C48,22.0581083 46.190625,26.4270716 42.9,29.7178573 C39.50625,33.111773 35.04375,34.8087309 30.590625,34.8087309 C26.5125,34.8087309 22.44375,33.3930368 19.18125,30.5616485 L17.109375,32.6336247 L19.228125,34.7431027 C19.4625,34.9774891 19.59375,35.2868792 19.59375,35.6150203 C19.59375,35.9431613 19.4625,36.2619269 19.228125,36.4869378 L9.31875,46.3967967 C8.2875,47.4280971 6.91875,48 5.45625,48 C4.003125,48 2.625,47.4280971 1.59375,46.3967967 C0.5625,45.3654964 0,43.9966795 0,42.5341081 C0,41.0715367 0.571875,39.7027199 1.603125,38.6714195 L11.503125,28.7709361 C11.7375,28.5365496 12.046875,28.4052932 12.375,28.4052932 C12.703125,28.4052932 13.0125,28.5365496 13.246875,28.7709361 L15.35625,30.8897895 L17.428125,28.8178134 C14.671875,25.6489086 13.171875,21.6455882 13.171875,17.4078812 C13.171875,12.7576542 14.98125,8.38869085 18.271875,5.09790517 C25.06875,-1.69930172 36.1125,-1.69930172 42.9,5.09790517 Z M45.534375,17.4078812 C45.534375,13.4139362 43.978125,9.66375311 41.15625,6.84174032 C38.240625,3.92597295 34.415625,2.47277699 30.590625,2.47277699 C26.765625,2.47277699 22.940625,3.92597295 20.025,6.84174032 C17.203125,9.66375311 15.646875,13.4139362 15.646875,17.4078812 C15.646875,21.4018263 17.203125,25.1520094 20.025,27.9740222 C25.846875,33.7961815 35.334375,33.7961815 41.15625,27.9740222 C43.978125,25.1520094 45.534375,21.4018263 45.534375,17.4078812 Z M14.840625,37.3776063 L16.59375,35.6243957 L12.375,31.3960643 L10.621875,33.1492749 L14.840625,37.3776063 Z M7.575,44.6529616 L13.096875,39.1308169 L8.86875,34.9024855 L3.346875,40.4246301 C2.784375,40.9871576 2.475,41.7371942 2.475,42.5434836 C2.475,43.3403975 2.784375,44.0904341 3.346875,44.6529616 C3.909375,45.215489 4.659375,45.5248791 5.45625,45.5248791 C6.253125,45.5248791 7.0125,45.215489 7.575,44.6529616 Z" id="Shape" fill="#020202" fill-rule="nonzero"></path>
                    <path d="M40.5996296,7.39411741 C43.4051503,10.2016196 44.952381,13.9325194 44.952381,17.9059278 C44.952381,21.8793362 43.4051503,25.6102361 40.5996296,28.4177382 C34.8114955,34.2099603 25.3789807,34.2099603 19.5908466,28.4177382 C16.7853259,25.6102361 15.2380952,21.8793362 15.2380952,17.9059278 C15.2380952,13.9325194 16.7853259,10.2016196 19.5908466,7.39411741 C22.489574,4.49334275 26.292406,3.04761905 30.0952381,3.04761905 C33.8980701,3.04761905 37.7009022,4.49334275 40.5996296,7.39411741 Z M42.0722949,17.9059278 C42.0722949,14.8372627 40.9072116,11.7592703 38.5677242,9.41813059 C33.8980701,4.73585124 26.2830854,4.73585124 21.6134313,9.41813059 C16.9344566,14.0910827 16.9344566,21.7114457 21.6134313,26.3843978 C23.9529187,28.7255375 27.0194181,29.8914437 30.0952381,29.8914437 C33.1710581,29.8914437 36.2375575,28.7255375 38.5770449,26.3843978 C40.9072116,24.0525854 42.0722949,20.974593 42.0722949,17.9059278 Z" id="Shape" fill="#F4F4F4" fill-rule="nonzero"></path>
                    <path d="M39.1031144,8.89454353 C41.4819751,11.2742135 42.6666667,14.3933825 42.6666667,17.5220323 C42.6666667,20.6506821 41.4819751,23.7698511 39.1031144,26.1495211 C36.7242538,28.5291911 33.6061456,29.7142857 30.4785599,29.7142857 C27.3509741,29.7142857 24.2328659,28.5291911 21.8540053,26.1495211 C17.096284,21.3901811 17.096284,13.6538835 21.8540053,8.90402429 C26.6212041,4.14468432 34.3548707,4.14468432 39.1031144,8.89454353 Z M37.3402934,24.3766196 C41.1218289,20.5937976 41.1218289,14.4407863 37.3402934,10.6579643 C35.4542644,8.77129369 32.9711509,7.823218 30.4880374,7.823218 C28.0049239,7.823218 25.5218104,8.77129369 23.6357814,10.6579643 C19.8542459,14.4407863 19.8542459,20.5937976 23.6357814,24.3766196 C27.4173169,28.1594416 33.5587579,28.1594416 37.3402934,24.3766196 Z" id="Shape" fill="#000000" fill-rule="nonzero"></path>
                    <path d="M36.8324429,11.1656285 C40.5479159,14.8815422 40.5479159,20.9257225 36.8324429,24.6416362 C33.1169699,28.3575498 27.0735063,28.3575498 23.3580333,24.6416362 C19.6425603,20.9257225 19.6425603,14.8815422 23.3580333,11.1656285 C25.2111138,9.31232822 27.650848,8.38102154 30.0905821,8.38102154 C32.5396282,8.37170847 34.9793624,9.30301515 36.8324429,11.1656285 Z M34.6627556,15.0678035 C35.1376657,14.5928371 35.1376657,13.8105395 34.6627556,13.3355731 C32.1485258,10.811732 28.0512624,10.811732 25.5277205,13.3355731 C25.0528105,13.8105395 25.0528105,14.5928371 25.5277205,15.0678035 C26.0026306,15.5427699 26.7848355,15.5427699 27.2597456,15.0678035 C28.8241552,13.5032083 31.366321,13.5032083 32.9214187,15.0678035 C33.1635297,15.3099432 33.4708245,15.4310131 33.7874312,15.4310131 C34.1133499,15.4217 34.4206446,15.3006302 34.6627556,15.0678035 Z" id="Shape" fill="#FFFFFF" fill-rule="nonzero"></path>
                    <path d="M34.6890226,12.4711779 C35.1671512,12.9256475 35.1671512,13.6741855 34.6890226,14.128655 C34.4452708,14.3603453 34.1358934,14.4761905 33.8171411,14.4761905 C33.4983887,14.4761905 33.1890113,14.3603453 32.9452595,14.128655 C31.3702477,12.6315789 28.8108534,12.6315789 27.2452167,14.128655 C26.7670881,14.5831245 25.9795822,14.5831245 25.5014536,14.128655 C25.023325,13.6741855 25.023325,12.9256475 25.5014536,12.4711779 C28.0327226,10.0651629 32.1577536,10.0651629 34.6890226,12.4711779 Z" id="Path" fill="#000000"></path>
                    <polygon id="Path" fill="#2274A5" points="16.7619048 35.546798 14.9686266 37.3333333 10.6666667 33.0246305 12.4599449 31.2380952"></polygon>
                    <path d="M12.952381,39.2935737 L7.40722061,44.8387341 C6.84234859,45.4036061 6.0891859,45.7142857 5.279536,45.7142857 C4.47930063,45.7142857 3.72613794,45.4036061 3.16126592,44.8387341 C2.5963939,44.2738621 2.28571429,43.5206994 2.28571429,42.720464 C2.28571429,41.9202286 2.5963939,41.1670659 3.16126592,40.5927794 L8.70642626,35.047619 L12.952381,39.2935737 Z" id="Path" fill="#FFCA28"></path>
                </g>
                <rect id="Rectangle" x="0" y="0" width="48" height="48"></rect>
            </g>
        </g>
    </g>
</svg>