<?xml version="1.0" encoding="UTF-8"?>
<svg width="47px" height="48px" viewBox="0 0 47 48" version="1.1" xmlns="http://www.w3.org/2000/svg" xmlns:xlink="http://www.w3.org/1999/xlink">
    <!-- Generator: sketchtool 53 (72520) - https://sketchapp.com -->
    <title>E2DC545A-EAA6-43A7-A44F-C9C9AE58DD95</title>
    <desc>Created with sketchtool.</desc>
    <g id="Mobile" stroke="none" stroke-width="1" fill="none" fill-rule="evenodd">
        <g id="Home-Page-Mobile" transform="translate(-35.000000, -2845.000000)">
            <g id="Group-20" transform="translate(34.000000, 2845.000000)">
                <g id="profile6" transform="translate(1.500000, 0.000000)">
                    <path d="M9.90222834,27.4439982 L23.25,35.6099955 L36.5977717,27.4439982 L45.5,22 L45.5,42.0468541 C45.5,44.7800089 43.2827992,47 40.5530796,47 L5.94692038,47 C3.2172008,47 1,44.7800089 1,42.0468541 L1,22 L9.90222834,27.4439982 Z" id="Path" fill="#2274A5"></path>
                    <path d="M36.5,14.0607029 L36.5,27.8146965 L23.25,36 L10,27.8146965 L10,4.53354633 C10,2.58785942 11.5705342,1 13.5060518,1 L26.8555927,1 L27.0325543,1.02236422 L27.0325543,7.02715655 C27.0325543,8.98402556 28.6030885,10.571885 30.5275459,10.571885 L35.5267112,10.571885 L36.5,11.6677316 L36.5,14.0607029 Z M30.9699499,18.6230032 C30.9699499,14.3067093 27.5081386,10.8067093 23.2389399,10.8067093 C18.9697412,10.8067093 15.5079299,14.3067093 15.5079299,18.6230032 C15.5079299,22.9392971 18.9697412,26.4392971 23.2389399,26.4392971 C27.5081386,26.4392971 30.9699499,22.9392971 30.9699499,18.6230032 Z" id="Shape" fill="#FFCA28" fill-rule="nonzero"></path>
                    <path d="M20.9615935,20.715345 C21.2471193,21.0499177 21.7382236,21.0960656 22.0694336,20.8191779 L26.203847,17.4273032 C26.4322677,17.2427114 26.5350569,16.9542867 26.4893728,16.677399 C26.4436887,16.3889742 26.2495312,16.1466975 25.9868474,16.0544016 C25.7241637,15.9505687 25.4157958,15.9967166 25.1987962,16.1813084 L21.6696975,19.0770926 L20.4019629,17.5772841 C20.2192264,17.3580813 19.9337006,17.2542484 19.6481749,17.3003963 C19.3626491,17.3465443 19.1342284,17.5542101 19.0428602,17.8310978 C18.9514919,18.1079856 19.0085971,18.4079473 19.1913336,18.62715 L20.9615935,20.715345 Z" id="Path" fill="#000000"></path>
                    <path d="M23,27 C27.686606,27 31.5,23.1976593 31.5,18.5 C31.5,13.813394 27.6976593,10 23,10 C18.313394,10 14.5,13.8023407 14.5,18.5 C14.5110533,23.1976593 18.313394,27 23,27 Z M23,11.5585176 C26.8355007,11.5585176 29.9525358,14.6755527 29.9525358,18.5110533 C29.9525358,22.346554 26.8355007,25.4635891 23,25.4635891 C19.1644993,25.4635891 16.0474642,22.346554 16.0474642,18.5110533 C16.0585176,14.6755527 19.1644993,11.5695709 23,11.5585176 Z" id="Shape" fill="#000000" fill-rule="nonzero"></path>
                    <path d="M44.5851781,17.9599678 L37.3250542,13.4511659 C37.3027838,13.4399778 37.2693784,13.4176016 37.247108,13.4064135 L37.1357565,13.3504731 L37.1357565,11.4484971 C37.1357565,11.2582995 37.0689455,11.0681019 36.9353236,10.9226567 L27.4258975,0.282779345 C27.4258975,0.282779345 27.4147623,0.271591251 27.4147623,0.271591251 C27.2477349,0.0813936542 26.9916263,-0.0192991913 26.7355176,0.00307699658 L26.7243825,0.00307699658 C26.7021121,0.00307699658 26.6687067,0.00307699658 26.6464363,0.00307699658 L13.206299,0.00307699658 C10.8233749,0.00307699658 8.90812749,1.93861725 8.89699233,4.32168126 L8.89699233,13.4064135 L1.43643556,17.9487797 C0.545622808,18.4969963 0,19.4703605 0,20.5220413 L0,42.2493197 C0,45.4155503 2.56108665,47.9888119 5.71233675,48 L40.2870066,48 C43.4382566,48 45.9993433,45.4267384 45.9993433,42.2493197 L45.9993433,20.5220413 C46.0216136,19.4815485 45.4759908,18.5081844 44.5851781,17.9599678 Z M43.7723114,19.2913509 C44.1954475,19.5598652 44.4626913,20.0297651 44.4626913,20.5332294 L44.4626913,21.7191673 L37.1246213,26.2279692 L37.1246213,15.1741324 L43.7723114,19.2913509 Z M27.60406,2.82247667 L33.6281813,9.56889732 L30.3433092,9.56889732 C28.8289276,9.56889732 27.60406,8.32701889 27.5929249,6.80543811 L27.5929249,2.82247667 L27.60406,2.82247667 Z M13.206299,1.56941015 L26.0562729,1.56941015 L26.0562729,6.81662621 C26.0562729,9.19969022 27.9826555,11.1352305 30.3544444,11.1352305 L35.0312113,11.1352305 L35.5768341,11.7505756 L35.5768341,27.1677691 L23.0163744,34.8875539 L10.4559146,27.1789572 L10.4559146,4.32168126 C10.4559146,2.80010048 11.6919173,1.56941015 13.206299,1.56941015 Z M2.26043735,19.2913509 L8.90812749,15.2412609 L8.90812749,26.2167811 L1.57005747,21.7079792 L1.57005747,20.5220413 C1.57005747,20.0185771 1.82616613,19.5598652 2.26043735,19.2913509 Z M40.3092769,46.4336668 L5.72347191,46.4336668 C3.42962908,46.4336668 1.55892231,44.5540671 1.55892231,42.2493197 L1.55892231,23.5428266 L9.13083067,28.1970737 C9.20877679,28.2753904 9.30899322,28.3313309 9.40920966,28.3648951 L22.5932383,36.4650751 C22.8382118,36.6217085 23.1499963,36.6217085 23.406105,36.4650751 L36.5901336,28.3648951 C36.6903501,28.3313309 36.7905665,28.2642023 36.8685126,28.1970737 L44.440619,23.5428266 L44.440421,42.2493197 C44.4626913,44.5652552 42.6031197,46.4336668 40.3092769,46.4336668 Z" id="Shape" fill="#000000" fill-rule="nonzero"></path>
                </g>
                <rect id="Rectangle" x="0" y="0" width="48" height="48"></rect>
            </g>
        </g>
    </g>
</svg>