<?xml version="1.0" encoding="UTF-8"?>
<svg width="64px" height="50px" viewBox="0 0 64 50" version="1.1" xmlns="http://www.w3.org/2000/svg" xmlns:xlink="http://www.w3.org/1999/xlink">
    <!-- Generator: sketchtool 53 (72520) - https://sketchapp.com -->
    <title>260A2AC2-AEFC-4B0C-8D92-FD561037D79C</title>
    <desc>Created with sketchtool.</desc>
    <g id="Mobile" stroke="none" stroke-width="1" fill="none" fill-rule="evenodd">
        <g id="Home-Page-Mobile" transform="translate(-40.000000, -872.000000)">
            <g id="Group-24" transform="translate(40.000000, 865.000000)">
                <g id="Group-20" transform="translate(0.000000, 7.333333)">
                    <path d="M58.8081439,49.3333333 L5.21435494,49.3333333 C2.30944718,49.3333333 -0.0219812593,46.9098893 0.000156355269,43.6661236 L0.000156355269,5.67490376 C0.000156355269,2.5091653 2.35514654,-7.10542736e-15 5.21435494,-7.10542736e-15 L58.8081439,-7.10542736e-15 C61.7427329,-7.10542736e-15 64,2.49076974 64,5.67490376 L64,43.7091505 C64,46.8326603 61.6985564,49.3333333 58.8081439,49.3333333 Z" id="Path" fill="#E4E4E4"></path>
                    <g id="Group" transform="translate(13.714286, 0.000000)" fill="#7F7E79">
                        <path d="M2.28571429,37.6484384 C1.04564706,37.6484384 0.0408739496,36.6466232 0.0408739496,35.4102065 L0.0408739496,28.2482935 C0.0408739496,27.0118768 1.04564706,26.0100616 2.28571429,26.0100616 C3.52578151,26.0100616 4.53055462,27.0118768 4.53055462,28.2482935 L4.53055462,35.4102065 C4.53055462,36.6466232 3.52578151,37.6484384 2.28571429,37.6484384 Z M2.28571429,23.323942 C1.04564706,23.323942 0.0408739496,22.3221268 0.0408739496,21.0857101 L0.0408739496,13.9237971 C0.0408739496,12.6873804 1.04564706,11.6855652 2.28571429,11.6855652 C3.52578151,11.6855652 4.53055462,12.6873804 4.53055462,13.9237971 L4.53055462,21.0857101 C4.53055462,22.3221268 3.52578151,23.323942 2.28571429,23.323942 Z" id="Shape" fill-rule="nonzero"></path>
                        <path d="M0.0408739496,0.0466521739 L0.0408739496,6.76121377 C0.0408739496,7.99763043 1.04564706,8.99944565 2.28571429,8.99944565 C3.52578151,8.99944565 4.53055462,7.99763043 4.53055462,6.76121377 L4.53055462,0.0466521739 L0.0408739496,0.0466521739 Z" id="Path"></path>
                        <path d="M2.28571429,40.3340217 C1.04564706,40.3340217 0.0408739496,41.335837 0.0408739496,42.5722536 L0.0408739496,49.2868152 L4.53042017,49.2868152 L4.53042017,42.5722536 C4.53055462,41.3357029 3.52578151,40.3340217 2.28571429,40.3340217 Z" id="Path"></path>
                    </g>
                    <path d="M58.7833527,49.3333333 C61.749714,49.3333333 64,46.8680693 64,43.7008377 L64,24.6666667 L64,5.60084142 C64,2.49083562 61.6191431,0 58.7833527,0 L32,0 L32,49.3333333 L58.7833527,49.3333333 Z" id="Path" fill="#FFCA28"></path>
                    <path d="M32.3265306,22.552381 C28.9054726,22.552381 26.122449,19.5490346 26.122449,15.8571429 C26.122449,12.1652511 28.9054726,9.16190476 32.3265306,9.16190476 C35.7475886,9.16190476 38.5306122,12.1652511 38.5306122,15.8571429 C38.5306122,19.5490346 35.7475886,22.552381 32.3265306,22.552381 Z M32.3265306,13.6254859 C31.1862192,13.6254859 30.2584621,14.6266905 30.2584621,15.8572765 C30.2584621,17.0878625 31.1862192,18.0890671 32.3265306,18.0890671 C33.466842,18.0890671 34.3945991,17.0878625 34.3945991,15.8572765 C34.3945991,14.6266905 33.466842,13.6254859 32.3265306,13.6254859 Z" id="Shape" fill="#FF5722" fill-rule="nonzero"></path>
                    <g id="Group" transform="translate(32.000000, 9.161905)" fill="#FF5722">
                        <path d="M0.688601504,0.0172275132 C0.453004511,0.0172275132 0.229038883,0.0640068376 0,0.0917033781 L0,4.57788034 C0.216541353,4.49545332 0.446075188,4.44218055 0.688601504,4.44218055 C1.82773276,4.44218055 2.75452975,5.43475035 2.75452975,6.65472332 C2.75452975,7.8746963 1.82773276,8.8672661 0.688601504,8.8672661 C0.446075188,8.8672661 0.216417615,8.81399333 0,8.7315663 L0,13.2177433 C0.229038883,13.2454398 0.453004511,13.2922191 0.688601504,13.2922191 C4.10611901,13.2922191 6.88626251,10.3147748 6.88626251,6.65472332 C6.88626251,2.99467188 4.10611901,0.0172275132 0.688601504,0.0172275132 Z" id="Path"></path>
                        <path d="M17.2156563,30.9922963 C13.7981388,30.9922963 11.0179953,28.0148519 11.0179953,24.3548005 C11.0179953,20.694749 13.7981388,17.7173047 17.2156563,17.7173047 C20.6331738,17.7173047 23.4133173,20.694749 23.4133173,24.3548005 C23.4133173,28.0148519 20.6331738,30.9922963 17.2156563,30.9922963 Z M17.2156563,22.1422577 C16.076525,22.1422577 15.149728,23.1348275 15.149728,24.3548005 C15.149728,25.5747735 16.076525,26.5673433 17.2156563,26.5673433 C18.3547875,26.5673433 19.2815845,25.5747735 19.2815845,24.3548005 C19.2815845,23.1348275 18.3547875,22.1422577 17.2156563,22.1422577 Z" id="Shape" fill-rule="nonzero"></path>
                    </g>
                    <path d="M32.1583461,36.647619 C31.6164939,36.647619 31.0746417,36.4309365 30.6611496,35.9977041 C29.8340386,35.1320366 29.8340386,33.7269875 30.6611496,32.8611871 L48.6300448,14.040225 C49.4571558,13.1738932 50.7973268,13.1738932 51.6245647,14.040225 C52.4516757,14.9058926 52.4516757,16.3109417 51.6245647,17.1767421 L33.6556695,35.9977041 C33.2420506,36.4310693 32.7001984,36.647619 32.1583461,36.647619 Z" id="Path" fill="#FF5722"></path>
                    <path d="M48.0995389,14.0404188 L32,31.4937795 L32,36.6085607 C32.0627438,36.6148047 32.1221788,36.647619 32.1850451,36.647619 C32.7085635,36.647619 33.2320819,36.4309383 33.6315833,35.9977097 L50.9924927,17.1769089 C51.7916181,16.3112488 51.7916181,14.9062117 50.9924927,14.0404188 C50.1934899,13.1738287 48.8987868,13.1738287 48.0995389,14.0404188 Z" id="Path" fill="#FF5722"></path>
                </g>
            </g>
        </g>
    </g>
</svg>