<?xml version="1.0" encoding="UTF-8"?>
<svg width="37px" height="48px" viewBox="0 0 37 48" version="1.1" xmlns="http://www.w3.org/2000/svg" xmlns:xlink="http://www.w3.org/1999/xlink">
    <!-- Generator: sketchtool 53 (72520) - https://sketchapp.com -->
    <title>9FA5E234-4359-450E-AF52-6C468FCCF3EC</title>
    <desc>Created with sketchtool.</desc>
    <g id="Mobile" stroke="none" stroke-width="1" fill="none" fill-rule="evenodd">
        <g id="Home-Page-Mobile" transform="translate(-40.000000, -2970.000000)">
            <g id="Group-22" transform="translate(34.000000, 2970.000000)">
                <g id="profile3" transform="translate(6.000000, 0.000000)">
                    <path d="M35.8849408,18.5463035 C35.8849408,24.7564202 32.6835871,30.2194553 27.8536379,33.3571984 C27.1277496,33.833463 26.5135364,34.4684825 26.0947547,35.2249027 L19.78511,46.4217899 C19.7664975,46.4498054 19.7571912,46.4684825 19.7385787,46.4964981 C19.0685279,47.570428 17.4678511,47.551751 16.8350254,46.4217899 L10.5160745,35.2249027 C10.0879865,34.4684825 9.48307953,33.833463 8.7571912,33.3571984 C3.85279188,30.1727626 0.632825719,24.5976654 0.725888325,18.2848249 C0.865482234,8.22723735 9.52030457,0.1307393 19.7292724,0.961867704 C28.7749577,1.69027237 35.8849408,9.28249027 35.8849408,18.5463035 Z" id="Path" fill="#2274A5"></path>
                    <path d="M31.2876481,18.5182879 C31.2876481,25.7182879 25.4712352,31.5455253 18.3054146,31.5455253 C11.1395939,31.5455253 5.32318105,25.7089494 5.32318105,18.5182879 C5.32318105,10.7859922 12.0143824,4.72529183 19.7292724,5.57509728 C26.2250423,6.29416342 31.2876481,11.8132296 31.2876481,18.5182879 Z" id="Path" fill="#FFFFFF"></path>
                    <path d="M26.6996616,14.7548638 L19.3011844,22.7859922 L16.9187817,25.3727626 C15.6810491,26.6708171 13.5964467,26.6054475 12.4424704,25.2326848 L10.4137056,22.8513619 C9.19458545,21.385214 8.07783418,19.9377432 8.03130288,19.8817121 C7.31472081,18.9478599 7.4822335,17.6124514 8.41285956,16.8933852 C8.57106599,16.7719844 8.74788494,16.6692607 8.92470389,16.6038911 C9.78087986,16.2583658 10.7952623,16.5105058 11.3908629,17.2762646 C12.4610829,18.6583658 13.7360406,20.2272374 14.6852792,21.3011673 C15.1319797,20.7875486 15.6996616,20.1618677 16.4348562,19.3680934 C17.0490694,18.7050584 17.784264,17.9206226 18.6497462,17.0054475 C21.1531303,14.3626459 23.6565144,11.7945525 23.6844332,11.766537 C24.5033841,10.92607 25.8434856,10.9167315 26.6810491,11.7385214 C26.7554992,11.8038911 26.820643,11.8785992 26.8764805,11.9533074 C27.5,12.7844358 27.4441624,13.9797665 26.6996616,14.7548638 Z" id="Path" fill="#FFCA28"></path>
                    <path d="M18.0448393,0.093385214 C8.18020305,0.233463035 0.148900169,8.28326848 0.00930626058,18.1821012 C-0.0837563452,24.4669261 3.00592217,30.3782101 8.36632826,33.8708171 C8.99915398,34.2817121 9.52961083,34.8420233 9.89255499,35.4863813 L12.6658206,40.4077821 C12.8612521,40.7533074 13.2986464,40.8747082 13.642978,40.6785992 C13.9873096,40.4824903 14.108291,40.0435798 13.9128596,39.6980545 L11.1395939,34.7766537 C10.6649746,33.9361868 9.97631134,33.1984436 9.14805415,32.6661479 C4.30879865,29.5190661 1.35871404,24.1214008 1.44247039,18.2007782 C1.57275804,9.0770428 9.12944162,1.53151751 18.3054146,1.53151751 C27.6023689,1.53151751 35.1683587,9.12373541 35.1683587,18.4529183 C35.1683587,24.214786 32.2927242,29.5284047 27.462775,32.6661479 C26.6345178,33.2077821 25.9458545,33.9361868 25.4619289,34.7859922 L19.1522843,45.9828794 C18.7800338,46.6459144 17.821489,46.6459144 17.4492386,45.9828794 L15.3181049,42.2101167 C15.1226734,41.8645914 14.6852792,41.7431907 14.3409475,41.9392996 C13.9966159,42.1354086 13.8756345,42.5743191 14.071066,42.9198444 L16.2021997,46.692607 C17.1235195,48.3268482 19.4686971,48.3268482 20.3900169,46.692607 L26.7089679,35.4863813 C27.071912,34.8420233 27.6023689,34.2817121 28.2351946,33.8708171 C33.465313,30.4715953 36.5922166,24.7003891 36.5922166,18.4529183 C36.6015228,8.18988327 28.1886633,-0.0560311284 18.0448393,0.093385214 Z" id="Path" fill="#000000"></path>
                    <path d="M30.1895093,23.7198444 C30.5803723,23.8692607 31.0270728,23.6638132 31.1666667,23.2715953 C35.0566836,12.8964981 25.713198,2.35330739 14.964467,5.05214008 C7.59390863,6.90116732 3.12690355,14.3719844 4.96954315,21.7774319 C6.50507614,27.9315175 11.9771574,32.2272374 18.2961083,32.2272374 C22.8747885,32.2272374 27.2301184,29.9392996 29.8079526,25.9797665 C30.0406091,25.6249027 29.9382403,25.1486381 29.5846024,24.9245136 C29.2309645,24.6910506 28.7563452,24.7937743 28.5329949,25.1486381 C26.2343486,28.6785992 22.3536379,30.7050584 18.2961083,30.7050584 C12.6844332,30.7050584 7.81725888,26.8856031 6.44923858,21.4132296 C4.81133672,14.8202335 8.78510998,8.18054475 15.3367174,6.53696498 C25.0803723,4.09961089 33.1302876,13.6996109 29.7428088,22.7299611 C29.5939086,23.1315175 29.7986464,23.570428 30.1895093,23.7198444 Z" id="Path" fill="#000000"></path>
                    <path d="M23.1539763,11.2715953 C22.3071066,12.1307393 17.2724196,17.3322957 14.6759729,20.2178988 C13.8384095,19.2373541 12.8333333,17.9953307 11.9399323,16.8373541 C11.4001692,16.136965 10.5812183,15.7354086 9.69712352,15.7354086 C7.37055838,15.7354086 6.00253807,18.4342412 7.45431472,20.3206226 C9.22250423,22.6085603 10.2554992,23.7758755 11.893401,25.6902724 C13.3544839,27.4272374 15.9881557,27.4272374 17.4399323,25.8490272 L27.2115059,15.2404669 C27.7326565,14.7081712 28.0118443,14.0077821 28.0118443,13.2607004 C28.0211506,10.7392996 24.9407783,9.44124514 23.1539763,11.2715953 Z M26.1692047,12.2521401 C26.6810491,12.7470817 26.7834179,13.6062257 26.178511,14.2599222 L16.4069374,24.877821 C15.4576988,25.8770428 13.8663283,25.8023346 12.9915398,24.7657588 C11.4094755,22.9167315 10.2741117,21.618677 8.59898477,19.4428016 C8.4035533,19.1906615 8.30118443,18.8918288 8.30118443,18.5836576 C8.30118443,17.229572 10.0042301,16.6692607 10.8138748,17.7151751 C11.9213198,19.1533074 13.1962775,20.7128405 14.1362098,21.7774319 C14.4247039,22.1042802 14.927242,22.1042802 15.2064298,21.7774319 C16.0626058,20.8062257 17.3468697,19.4054475 19.1522843,17.5003891 C21.6277496,14.8856031 24.1497462,12.2988327 24.177665,12.2708171 C24.7267343,11.7198444 25.6108291,11.7105058 26.1692047,12.2521401 Z" id="Shape" fill="#000000" fill-rule="nonzero"></path>
                </g>
                <rect id="Rectangle" x="0" y="0" width="48" height="48"></rect>
            </g>
        </g>
    </g>
</svg>