<?xml version="1.0" encoding="UTF-8"?>
<svg width="48px" height="42px" viewBox="0 0 48 42" version="1.1" xmlns="http://www.w3.org/2000/svg" xmlns:xlink="http://www.w3.org/1999/xlink">
    <!-- Generator: sketchtool 53 (72520) - https://sketchapp.com -->
    <title>A5418AC6-77A1-4D65-8093-7F80F647E9EF</title>
    <desc>Created with sketchtool.</desc>
    <g id="Mobile" stroke="none" stroke-width="1" fill="none" fill-rule="evenodd">
        <g id="Home-Page-Mobile" transform="translate(-34.000000, -3417.000000)">
            <g id="Group-24" transform="translate(34.000000, 3414.000000)">
                <g id="profile1" transform="translate(0.000000, 3.000000)">
                    <path d="M3.20420449,0.803757944 C1.89555662,0.803757944 0.840707119,1.86217187 0.840707119,3.17524178 L0.840707119,27.6938381 L43.4074534,27.6938381 L43.4074534,3.17524178 C43.4074534,1.86217187 42.3526039,0.803757944 41.043956,0.803757944 L3.20420449,0.803757944 Z" id="Path" fill="#2274A5"></path>
                    <polygon id="Path" fill="#F4F4F4" points="28.980602 39.5592153 26.8550406 32.4447637 18.9714286 32.4447637 16.8458672 39.5592153 14.2444338 39.5592153 14.2444338 41.1428571 31.5820354 41.1428571 31.5820354 39.5592153"></polygon>
                    <path d="M0.840707119,27.6938381 L0.840707119,30.0653219 C0.840707119,31.3783918 1.89555662,32.4368057 3.20420449,32.4368057 L41.0360248,32.4368057 C42.3446727,32.4368057 43.3995222,31.3783918 43.3995222,30.0653219 L43.3995222,27.6938381 L0.840707119,27.6938381 Z" id="Path" fill="#F4F4F4"></path>
                    <polygon id="Path" fill="#F4F4F4" points="27.5609173 34.8082896 26.8550406 32.4368057 18.9714286 32.4368057 18.2655518 34.8082896"></polygon>
                    <polygon id="Path" fill="#FFFFFF" points="3.99732441 3.96308372 40.2508361 3.96308372 40.2508361 27.6938381 3.99732441 27.6938381"></polygon>
                    <polygon id="Path" fill="#FFCA28" points="7.14601051 13.4569771 15.0296226 13.4569771 15.0296226 19.7835866 7.14601051 19.7835866"></polygon>
                    <polygon id="Path" fill="#FFCA28" points="18.1783086 13.4569771 26.0619207 13.4569771 26.0619207 19.7835866 18.1783086 19.7835866 18.1783086 13.4569771"></polygon>
                    <polygon id="Path" fill="#FFCA28" points="29.218538 13.4569771 37.10215 13.4569771 37.10215 19.7835866 29.218538 19.7835866"></polygon>
                    <polygon id="Path" fill="#FFCA28" points="7.14601051 22.9508704 15.0296226 22.9508704 15.0296226 27.6938381 7.14601051 27.6938381"></polygon>
                    <polygon id="Path" fill="#FFCA28" points="18.1783086 22.9508704 26.0619207 22.9508704 26.0619207 27.6938381 18.1783086 27.6938381 18.1783086 22.9508704"></polygon>
                    <polygon id="Path" fill="#FFCA28" points="29.218538 22.9508704 37.10215 22.9508704 37.10215 27.6938381 29.218538 27.6938381"></polygon>
                    <polygon id="Path" fill="#5EB3D1" points="3.99732441 9.50185134 40.2508361 9.50185134 40.2508361 11.0854932 3.99732441 11.0854932"></polygon>
                    <polygon id="Path" fill="#5EB3D1" points="7.14601051 6.34252556 11.8730053 6.34252556 11.8730053 7.92616745 7.14601051 7.92616745"></polygon>
                    <polygon id="Path" fill="#5EB3D1" points="13.4513139 6.34252556 18.1783086 6.34252556 18.1783086 7.92616745 13.4513139 7.92616745"></polygon>
                    <polygon id="Path" fill="#5EB3D1" points="19.7566173 6.34252556 24.483612 6.34252556 24.483612 7.92616745 19.7566173 7.92616745"></polygon>
                    <polygon id="Path" fill="#5EB3D1" points="26.0619207 6.34252556 30.7889154 6.34252556 30.7889154 7.92616745 26.0619207 7.92616745"></polygon>
                    <path d="M31.7247969,19.7835866 C31.6296226,20.0382426 31.5820354,20.3088146 31.5820354,20.5714286 L31.5820354,22.9429124 L37.10215,22.9429124 L37.10215,19.7756286 L31.7247969,19.7756286 L31.7247969,19.7835866 Z" id="Path" fill="#FFFFFF"></path>
                    <polygon id="Path" fill="#FFCA28" points="31.5820354 22.9508704 33.160344 22.9508704 33.160344 27.6938381 31.5820354 27.6938381"></polygon>
                    <polygon id="Path" fill="#F4F4F4" points="31.5820354 27.6938381 33.160344 27.6938381 33.160344 32.4368057 31.5820354 32.4368057"></polygon>
                    <path d="M37.0942188,18.1999447 L33.9455327,18.1999447 C32.9462016,18.1999447 32.0579073,18.8365847 31.7247969,19.7835866 L37.0942188,19.7835866 L37.0942188,18.1999447 Z" id="Path" fill="#FFCA28"></path>
                    <path d="M44.1926421,16.6242608 L35.5238414,16.6242608 C34.2151935,16.6242608 33.160344,17.6826748 33.160344,18.9957447 L33.160344,36.3919315 L46.5561395,36.3919315 L46.5561395,18.9957447 C46.5561395,17.6826748 45.50129,16.6242608 44.1926421,16.6242608 Z" id="Path" fill="#FFFFFF"></path>
                    <polygon id="Path" fill="#FFCA28" points="36.3090301 22.9508704 43.3995222 22.9508704 43.3995222 29.27748 36.3090301 29.27748 36.3090301 22.9508704"></polygon>
                    <polygon id="Path" fill="#FFCA28" points="36.3090301 32.4368057 43.3995222 32.4368057 43.3995222 36.3919315 36.3090301 36.3919315 36.3090301 32.4368057"></polygon>
                    <path d="M33.160344,37.9755734 C33.160344,39.2886433 34.2151935,40.3470572 35.5238414,40.3470572 L44.1926421,40.3470572 C45.50129,40.3470572 46.5561395,39.2886433 46.5561395,37.9755734 L46.5561395,36.3919315 L33.160344,36.3919315 L33.160344,37.9755734 Z" id="Path" fill="#F4F4F4"></path>
                    <polygon id="Path" fill="#5EB3D1" points="36.3090301 18.9957447 43.3995222 18.9957447 43.3995222 20.5793866 36.3090301 20.5793866 36.3090301 18.9957447"></polygon>
                    <path d="M1.62589584,3.17524178 C1.62589584,2.29986184 2.33177258,1.59159989 3.20420449,1.59159989 L41.0360248,1.59159989 C41.9084568,1.59159989 42.6143335,2.29986184 42.6143335,3.17524178 L42.6143335,14.244819 L44.1926421,14.244819 L44.1926421,3.17524178 C44.1926421,1.4244819 42.7808887,0.0159159989 41.0360248,0.0159159989 L3.20420449,0.0159159989 C1.46727186,0.0159159989 0.0555183946,1.4324399 0.0555183946,3.17524178 L0.0555183946,30.0653219 C0.0555183946,31.8160818 1.46727186,33.2326057 3.21213569,33.2326057 L17.1313903,33.2326057 L15.2279025,39.5592153 L13.4513139,39.5592153 L13.4513139,41.1428571 L30.7889154,41.1428571 L30.7889154,39.5592153 L29.0123268,39.5592153 L27.1247014,33.2326057 L30.7968466,33.2326057 L30.7968466,31.6489638 L3.20420449,31.6489638 C2.33177258,31.6489638 1.62589584,30.9407019 1.62589584,30.0653219 L1.62589584,28.48168 L30.7889154,28.48168 L30.7889154,26.8980381 L1.62589584,26.8980381 L1.62589584,3.17524178 Z M18.7652174,33.2326057 L25.4750119,33.2326057 L27.3705686,39.5592153 L16.877592,39.5592153 L18.7652174,33.2326057 Z" id="Shape" fill="#000000" fill-rule="nonzero"></path>
                    <path d="M41.0360248,14.244819 L41.0360248,3.96308372 C41.0360248,3.52539376 40.6791209,3.17524178 40.2508361,3.17524178 L3.99732441,3.17524178 C3.56110846,3.17524178 3.21213569,3.53335175 3.21213569,3.96308372 L3.21213569,25.3143962 L4.79044434,25.3143962 L4.79044434,11.0854932 L39.4735786,11.0854932 L39.4735786,14.244819 L41.0360248,14.244819 Z M4.78251314,9.50185134 L4.78251314,4.75888367 L39.4656474,4.75888367 L39.4656474,9.50185134 L4.78251314,9.50185134 Z" id="Shape" fill="#000000" fill-rule="nonzero"></path>
                    <polygon id="Path" fill="#000000" points="7.14601051 6.34252556 11.8730053 6.34252556 11.8730053 7.92616745 7.14601051 7.92616745"></polygon>
                    <polygon id="Path" fill="#000000" points="13.4513139 6.34252556 18.1783086 6.34252556 18.1783086 7.92616745 13.4513139 7.92616745"></polygon>
                    <polygon id="Path" fill="#000000" points="19.7566173 6.34252556 24.483612 6.34252556 24.483612 7.92616745 19.7566173 7.92616745"></polygon>
                    <polygon id="Path" fill="#000000" points="26.0619207 6.34252556 30.7889154 6.34252556 30.7889154 7.92616745 26.0619207 7.92616745"></polygon>
                    <path d="M15.8148113,13.4569771 C15.8148113,13.0192871 15.4579073,12.6691351 15.0296226,12.6691351 L7.14601051,12.6691351 C6.70979455,12.6691351 6.36082179,13.0272451 6.36082179,13.4569771 L6.36082179,19.7835866 C6.36082179,20.2212766 6.71772575,20.5714286 7.14601051,20.5714286 L15.0296226,20.5714286 C15.4658385,20.5714286 15.8148113,20.2133186 15.8148113,19.7835866 L15.8148113,13.4569771 Z M14.2365026,18.9957447 L7.93119924,18.9957447 L7.93119924,14.244819 L14.2365026,14.244819 L14.2365026,18.9957447 Z" id="Shape" fill="#000000" fill-rule="nonzero"></path>
                    <path d="M26.8550406,13.4569771 C26.8550406,13.0192871 26.4981366,12.6691351 26.0698519,12.6691351 L18.1862398,12.6691351 C17.7500239,12.6691351 17.4010511,13.0272451 17.4010511,13.4569771 L17.4010511,19.7835866 C17.4010511,20.2212766 17.7579551,20.5714286 18.1862398,20.5714286 L26.0698519,20.5714286 C26.5060678,20.5714286 26.8550406,20.2133186 26.8550406,19.7835866 L26.8550406,13.4569771 Z M25.276732,18.9957447 L18.9714286,18.9957447 L18.9714286,14.244819 L25.276732,14.244819 L25.276732,18.9957447 Z" id="Shape" fill="#000000" fill-rule="nonzero"></path>
                    <path d="M30.0037267,14.244819 L37.8873387,14.244819 L37.8873387,13.4569771 C37.8873387,13.0192871 37.5304348,12.6691351 37.10215,12.6691351 L29.218538,12.6691351 C28.782322,12.6691351 28.4333493,13.0272451 28.4333493,13.4569771 L28.4333493,19.7835866 C28.4333493,20.2212766 28.7902532,20.5714286 29.218538,20.5714286 L30.7968466,20.5714286 L30.7968466,18.9877867 L30.0116579,18.9877867 L30.0037267,14.244819 L30.0037267,14.244819 Z" id="Path" fill="#000000"></path>
                    <path d="M15.8148113,25.3223542 L15.8148113,22.9508704 C15.8148113,22.5131804 15.4579073,22.1630285 15.0296226,22.1630285 L7.14601051,22.1630285 C6.70979455,22.1630285 6.36082179,22.5211384 6.36082179,22.9508704 L6.36082179,25.3223542 L7.93119924,25.3223542 L7.93119924,23.7387124 L14.2365026,23.7387124 L14.2365026,25.3223542 L15.8148113,25.3223542 Z" id="Path" fill="#000000"></path>
                    <path d="M26.8550406,25.3223542 L26.8550406,22.9508704 C26.8550406,22.5131804 26.4981366,22.1630285 26.0698519,22.1630285 L18.1862398,22.1630285 C17.7500239,22.1630285 17.4010511,22.5211384 17.4010511,22.9508704 L17.4010511,25.3223542 L18.9793598,25.3223542 L18.9793598,23.7387124 L25.2846632,23.7387124 L25.2846632,25.3223542 L26.8550406,25.3223542 Z" id="Path" fill="#000000"></path>
                    <path d="M28.4254181,22.9508704 L28.4254181,25.3223542 L30.0037267,25.3223542 L30.0037267,23.7387124 L30.7889154,23.7387124 L30.7889154,22.1550705 L29.2106068,22.1550705 C28.782322,22.1550705 28.4254181,22.5131804 28.4254181,22.9508704 Z" id="Path" fill="#000000"></path>
                    <path d="M44.1926421,15.8284609 L35.5238414,15.8284609 C33.7789775,15.8284609 32.3672241,17.2449848 32.3672241,18.9877867 L32.3672241,37.9676154 C32.3672241,39.7183752 33.7789775,41.1348991 35.5238414,41.1348991 L44.1926421,41.1348991 C45.937506,41.1348991 47.3492594,39.7183752 47.3492594,37.9676154 L47.3492594,18.9957447 C47.3413282,17.2449848 45.9295748,15.8284609 44.1926421,15.8284609 Z M45.7709508,37.9755734 C45.7709508,38.8509533 45.0650741,39.5592153 44.1926421,39.5592153 L35.5238414,39.5592153 C34.6514095,39.5592153 33.9455327,38.8509533 33.9455327,37.9755734 L33.9455327,37.1877314 L45.7709508,37.1877314 L45.7709508,37.9755734 Z M45.7709508,35.6040895 L33.9455327,35.6040895 L33.9455327,18.9957447 C33.9455327,18.1203647 34.6514095,17.4121028 35.5238414,17.4121028 L44.1926421,17.4121028 C45.0650741,17.4121028 45.7709508,18.1203647 45.7709508,18.9957447 L45.7709508,35.6040895 L45.7709508,35.6040895 Z" id="Shape" fill="#000000" fill-rule="nonzero"></path>
                    <path d="M43.4074534,22.1550705 L36.3169613,22.1550705 C35.8807453,22.1550705 35.5317726,22.5131804 35.5317726,22.9429124 L35.5317726,29.269522 C35.5317726,29.7072119 35.8886765,30.0573639 36.3169613,30.0573639 L43.4074534,30.0573639 C43.8436694,30.0573639 44.1926421,29.6992539 44.1926421,29.269522 L44.1926421,22.9429124 C44.1926421,22.5131804 43.8357382,22.1550705 43.4074534,22.1550705 Z M42.6143335,28.48168 L37.0942188,28.48168 L37.0942188,23.7387124 L42.6143335,23.7387124 L42.6143335,28.48168 Z" id="Shape" fill="#000000" fill-rule="nonzero"></path>
                    <path d="M43.4074534,31.6489638 L36.3169613,31.6489638 C35.8807453,31.6489638 35.5317726,32.0070738 35.5317726,32.4368057 L35.5317726,34.0204476 L37.1100812,34.0204476 L37.1100812,33.2326057 L42.6301959,33.2326057 L42.6301959,34.0204476 L44.2085045,34.0204476 L44.2085045,32.4368057 C44.1926421,31.9991158 43.8357382,31.6489638 43.4074534,31.6489638 Z" id="Path" fill="#000000"></path>
                    <polygon id="Path" fill="#000000" points="35.5238414 18.9957447 44.1926421 18.9957447 44.1926421 20.5793866 35.5238414 20.5793866"></polygon>
                </g>
                <rect id="Rectangle" x="0" y="0" width="48" height="48"></rect>
            </g>
        </g>
    </g>
</svg>