<?xml version="1.0" encoding="UTF-8"?>
<svg width="48px" height="48px" viewBox="0 0 48 48" version="1.1" xmlns="http://www.w3.org/2000/svg" xmlns:xlink="http://www.w3.org/1999/xlink">
    <!-- Generator: sketchtool 53 (72520) - https://sketchapp.com -->
    <title>3FA8A109-D8E7-456E-A98B-F96A7F6A7B9D</title>
    <desc>Created with sketchtool.</desc>
    <g id="Mobile" stroke="none" stroke-width="1" fill="none" fill-rule="evenodd">
        <g id="Home-Page-Mobile" transform="translate(-34.000000, -3279.000000)">
            <g id="Group-27" transform="translate(34.000000, 3279.000000)">
                <g id="Group-23">
                    <path d="M35.5087719,43.9298246 C24.5052632,50.2830409 10.4327485,46.5122807 4.07017544,35.5087719 C-2.29239766,24.5052632 1.4877193,10.4327485 12.4912281,4.07017544 C23.4947368,-2.29239766 37.5672515,1.4877193 43.9298246,12.4912281 C50.2923977,23.4947368 46.5122807,37.5766082 35.5087719,43.9298246 Z" id="Path" fill="#FFFFFF"></path>
                    <g id="Group" transform="translate(0.561404, 1.871345)" fill="#FFCA28">
                        <path d="M24.5052632,16.0935673 C24.3368421,16.1309942 24.0187135,16.2152047 23.8783626,16.3274854 C23.7005848,16.4678363 23.9719298,16.645614 23.8783626,16.7298246 C23.7099415,16.8701754 23.5883041,17.1134503 23.2140351,17.0947368 C22.4467836,17.0479532 21.277193,16.0561404 20.5754386,15.6818713 C21.6982456,14.5216374 19.9204678,14.3532164 19.2280702,14.4093567 C18.3298246,14.4842105 16.7766082,14.4 15.9625731,14.8584795 C15.4011696,15.1766082 14.6432749,16.4959064 14.1847953,17.0105263 C13.548538,17.7403509 12.9216374,18.3672515 12.5099415,19.2374269 C11.0035088,22.4374269 13.3239766,26.1052632 16.9730994,25.6748538 C17.9836257,25.5532164 19.0502924,24.9169591 19.948538,25.7590643 C20.6128655,26.3766082 20.2573099,26.9660819 20.4350877,27.6865497 C20.5847953,28.3134503 21.277193,28.697076 21.5204678,29.2678363 C21.9789474,30.3719298 21.6888889,31.0549708 21.3614035,32.0748538 C20.9309942,33.4035088 22.0444444,34.994152 22.4748538,36.2760234 C22.6900585,36.9216374 23.3263158,38.7368421 23.9532164,39.0175439 C24.9356725,39.4666667 26.4701754,38.128655 27.0596491,37.4081871 C27.5181287,36.8467836 27.3684211,36.2760234 27.677193,35.7426901 C28.0140351,35.1719298 28.4350877,35.0035088 28.6690058,34.2643275 C28.9216374,33.4690058 29.1836257,33.2725146 29.7169591,32.6923977 C30.5684211,31.7660819 30.4374269,31.2140351 30.1005848,30.1099415 C29.3894737,27.8175439 31.9719298,26.7415205 33.1321637,25.0573099 C34.348538,23.2982456 32,23.8877193 31.0830409,23.2888889 C30.1380117,22.671345 29.7263158,21.4923977 29.2678363,20.5192982 C28.8093567,19.5461988 28.4350877,18.077193 27.677193,17.2818713 C27.097076,16.6830409 25.328655,16.3929825 24.5052632,16.0935673 Z" id="Path"></path>
                        <path d="M36.3883041,31.4666667 C36.0233918,32.7017544 35.6584795,33.9368421 35.2842105,35.1719298 C35.0315789,36.0327485 34.1239766,38.8678363 32.851462,37.0526316 C32.3649123,36.3602339 32.7578947,35.4619883 33.0292398,34.825731 C33.3660819,34.0304094 32.9076023,33.6280702 33.1508772,32.8701754 C33.4222222,32 34.5450292,31.9719298 35.0690058,31.3637427 C35.4339181,30.9426901 35.6678363,30.2596491 35.9391813,29.7637427 C36.0795322,30.3438596 36.2385965,30.9052632 36.3883041,31.4666667 Z" id="Path"></path>
                        <path d="M42.8070175,11.471345 C38.8491228,4.60350877 31.8783626,0.552046784 24.5239766,0.0187134503 L21.5204678,3.79883041 L15.0643275,6.05380117 L13.3333333,10.245614 L16,13.9883041 L16.2807018,13.2023392 C16.7578947,11.8830409 18.0023392,11.0035088 19.405848,11.0035088 L23.8035088,11.0035088 L28.8561404,12.7812865 L30.5964912,14.4467836 L30.5964912,15.5040936 L33.019883,20.1450292 L33.7216374,19.8830409 C35.2467836,19.3216374 36.6222222,18.4327485 37.7730994,17.2912281 L37.1929825,16.4116959 C37.005848,16.1309942 37.2023392,15.7567251 37.5391813,15.7567251 L38.9520468,15.7567251 C39.3637427,15.7567251 39.7567251,15.9345029 40.0280702,16.2526316 L41.1789474,17.6 C41.2912281,17.7309942 41.3754386,17.871345 41.4315789,18.0304094 L42.7040936,21.5298246 L43.3122807,20.9216374 C43.6959064,20.5380117 43.8830409,20.0233918 43.8923977,19.4807018 C43.9017544,19.0502924 44.0888889,18.6385965 44.4163743,18.348538 L44.8842105,17.9368421 C44.9964912,17.8339181 45.1274854,17.7497076 45.2678363,17.6842105 C44.7719298,15.5508772 43.9578947,13.4643275 42.8070175,11.471345 Z" id="Path"></path>
                        <path d="M8.38362573,12.3695906 L9.4877193,11.1906433 C10.2923977,10.3298246 10.5169591,9.08538012 10.0678363,7.99064327 L10.0678363,7.99064327 C9.59064327,6.83976608 8.55204678,6.09122807 7.40116959,5.94152047 C3.34035088,9.62807018 0.814035088,14.5871345 0.0842105263,19.8362573 C0.94502924,20.5847953 1.84327485,21.3894737 1.83391813,21.4643275 C1.8245614,21.5953216 5.05263158,21.0619883 5.05263158,21.0619883 L3.39649123,18.619883 L5.78245614,16.9169591 L8.38362573,12.3695906 Z" id="Path"></path>
                        <path d="M10.619883,35.2935673 C11.6584795,34.9567251 12.2292398,33.8432749 11.8923977,32.8046784 L11.5929825,31.897076 C11.4619883,31.4947368 11.4619883,31.0736842 11.5929825,30.671345 L11.5929825,30.671345 C11.9672515,29.5391813 11.2561404,28.3415205 10.0959064,28.1169591 L7.76608187,27.6584795 L3.51812865,24.4304094 L0.00935672515,25.5719298 C0.355555556,28.6222222 1.31929825,31.6538012 2.94736842,34.4795322 C4.45380117,37.0994152 6.4,39.2982456 8.63625731,41.0573099 L9.68421053,35.5929825 L10.619883,35.2935673 Z" id="Path"></path>
                    </g>
                    <path d="M26.0584795,42.7508772 L26.0210526,42.7695906 C25.5719298,43.0315789 25.4222222,43.6023392 25.6842105,44.051462 C25.8619883,44.3508772 26.1707602,44.5192982 26.4982456,44.5192982 C26.6573099,44.5192982 26.8163743,44.4818713 26.9660819,44.3883041 L27.0035088,44.3695906 C27.4526316,44.1076023 27.6023392,43.5368421 27.3403509,43.0877193 C27.0783626,42.6385965 26.5076023,42.4888889 26.0584795,42.7508772 Z" id="Path" fill="#000000"></path>
                    <path d="M44.7438596,12.0327485 C41.5438596,6.49356725 36.3789474,2.52631579 30.2035088,0.870175439 C24.0280702,-0.785964912 17.5719298,0.065497076 12.0327485,3.26549708 C6.49356725,6.46549708 2.52631579,11.6304094 0.870175439,17.805848 C-0.785964912,23.9812865 0.065497076,30.4374269 3.26549708,35.9766082 C6.1380117,40.9450292 10.6947368,44.7251462 16.102924,46.605848 C18.6666667,47.5040936 21.3426901,47.9438596 24.0187135,47.9438596 C26.928655,47.9438596 29.8292398,47.419883 32.5707602,46.3625731 C33.0573099,46.1754386 33.2912281,45.6327485 33.1040936,45.1555556 C32.9169591,44.6783626 32.374269,44.4350877 31.897076,44.6222222 C24.5988304,47.4292398 16.6923977,46.1567251 10.7883041,41.7216374 L11.6304094,37.3426901 L12.0327485,37.2116959 C13.5578947,36.7157895 14.4,35.0690058 13.9040936,33.5438596 L13.6046784,32.6362573 C13.5391813,32.4210526 13.5391813,32.205848 13.6046784,31.9906433 C13.8666667,31.1953216 13.7730994,30.3345029 13.3520468,29.6140351 C12.9309942,28.8935673 12.219883,28.3883041 11.3964912,28.2292398 L9.28187135,27.8175439 L5.21169591,24.7204678 C4.96842105,24.5333333 4.6502924,24.477193 4.36023392,24.5707602 L1.97426901,25.3473684 C1.92748538,24.4959064 1.92748538,23.6444444 1.97426901,22.7929825 C2.06783626,22.877193 2.13333333,22.9426901 2.17076023,22.980117 C2.21754386,23.0549708 2.27368421,23.1298246 2.33918129,23.1953216 C2.53567251,23.3730994 2.71345029,23.4573099 3.07836257,23.4573099 C3.41520468,23.4573099 3.92046784,23.3918129 4.75321637,23.2701754 C5.53918129,23.1578947 6.3251462,23.0175439 6.33450292,23.0175439 C6.65263158,22.9614035 6.91461988,22.7555556 7.03625731,22.4654971 C7.15789474,22.1754386 7.12982456,21.8385965 6.95204678,21.5672515 L5.80116959,19.8830409 L7.44795322,18.7040936 C7.56023392,18.6292398 7.64444444,18.5263158 7.71929825,18.4046784 L10.2643275,13.9602339 L11.2935673,12.8561404 C12.3415205,11.7333333 12.6409357,10.0865497 12.0608187,8.66432749 C11.7146199,7.82222222 11.1157895,7.12982456 10.3578947,6.65263158 C11.1719298,6.00701754 12.051462,5.41754386 12.9777778,4.88421053 C16.374269,2.91929825 20.0888889,1.97426901 23.7567251,1.93684211 L22.0818713,4.03274854 L15.8877193,6.20350877 C15.6350877,6.2877193 15.4385965,6.48421053 15.3356725,6.72748538 L13.6046784,10.9192982 C13.4830409,11.2187135 13.5204678,11.5555556 13.7076023,11.8175439 L16.2339181,15.354386 C15.8690058,15.6818713 15.522807,16.1684211 15.1017544,16.7672515 C14.9146199,17.0292398 14.7461988,17.2725146 14.6245614,17.4128655 C14.5216374,17.5345029 14.4187135,17.6561404 14.3157895,17.7684211 C13.7730994,18.3766082 13.2116959,19.0128655 12.8093567,19.8549708 C11.9298246,21.7169591 12.1076023,23.8690058 13.2678363,25.4877193 C14.3906433,27.0502924 16.2432749,27.845614 18.2269006,27.6116959 C18.5450292,27.574269 18.8538012,27.4994152 19.1438596,27.4245614 C19.948538,27.2280702 20.2011696,27.2093567 20.4538012,27.4432749 C20.5754386,27.5649123 20.594152,27.5836257 20.5847953,27.9766082 C20.5847953,28.2292398 20.5847953,28.5473684 20.6690058,28.902924 C20.8093567,29.4736842 21.174269,29.8760234 21.4643275,30.194152 C21.6046784,30.3532164 21.754386,30.5122807 21.8011696,30.6245614 C22.0912281,31.3263158 21.9695906,31.7099415 21.6888889,32.5614035 C21.6608187,32.6362573 21.6421053,32.7111111 21.6140351,32.7859649 C21.1929825,34.0959064 21.7824561,35.3964912 22.297076,36.5380117 C22.4654971,36.9122807 22.6245614,37.2584795 22.7274854,37.5672515 C23.5695906,40.0654971 24.1964912,40.6362573 24.7017544,40.8608187 C24.9637427,40.9824561 25.2444444,41.0385965 25.5157895,41.0385965 C26.8631579,41.0385965 28.2760234,39.7847953 28.9216374,38.9894737 C29.3239766,38.4935673 29.4269006,37.9883041 29.5017544,37.6233918 C29.5391813,37.445614 29.5672515,37.2959064 29.6233918,37.2023392 C29.7076023,37.0619883 29.8011696,36.9497076 29.9321637,36.8093567 C30.1847953,36.528655 30.4935673,36.1730994 30.6994152,35.5368421 C30.8491228,35.0502924 30.9614035,34.9380117 31.3356725,34.5450292 C31.4011696,34.4795322 31.4666667,34.4046784 31.5415205,34.3204678 C32.7859649,32.9637427 32.4678363,31.9251462 32.1309942,30.8304094 C31.8409357,29.9040936 32.3461988,29.3146199 33.5532164,28.1918129 C34.077193,27.7052632 34.619883,27.2 35.0409357,26.5918129 C35.2280702,26.3298246 35.780117,25.5157895 35.4339181,24.7204678 C35.097076,23.9345029 34.2362573,23.8035088 33.5438596,23.7005848 C33.2725146,23.6631579 32.8608187,23.5976608 32.7298246,23.5134503 C32.1497076,23.1391813 31.794152,22.3438596 31.4573099,21.5766082 C31.3918129,21.4269006 31.3263158,21.277193 31.251462,21.1274854 C31.1298246,20.8654971 31.0081871,20.5567251 30.877193,20.219883 C30.5403509,19.3403509 30.1473684,18.3391813 29.4923977,17.6467836 C28.902924,17.019883 27.7894737,16.7204678 26.8070175,16.4584795 C26.4795322,16.3649123 26.1614035,16.2807018 25.9555556,16.205848 C25.7871345,16.1403509 25.6,16.1309942 25.4222222,16.1684211 C24.9450292,16.2807018 24.645614,16.4023392 24.4210526,16.580117 C24.3649123,16.6269006 24.1871345,16.7766082 24.0842105,17.0292398 C23.7380117,16.8608187 23.2701754,16.5520468 22.980117,16.3555556 C22.9707602,16.3555556 22.9707602,16.3461988 22.9614035,16.3461988 C23.0549708,15.9532164 22.9707602,15.6444444 22.877193,15.4479532 C22.3532164,14.3438596 20.6222222,14.4280702 20.2760234,14.4561404 C20.0795322,14.4748538 19.8362573,14.4842105 19.574269,14.4935673 C19.1625731,14.5122807 18.7134503,14.5216374 18.2643275,14.5777778 L18.2830409,14.5122807 C18.619883,13.5672515 19.5274854,12.9309942 20.528655,12.9309942 L21.0619883,12.9309942 C21.5766082,12.9309942 21.9976608,12.5099415 21.9976608,11.9953216 C21.9976608,11.4807018 21.5766082,11.0596491 21.0619883,11.0596491 L20.528655,11.0596491 C19.0409357,11.0596491 17.6748538,11.845614 16.9076023,13.0807018 L15.5134503,11.1251462 L16.8888889,7.79415205 L22.9520468,5.70760234 C23.1204678,5.65146199 23.2608187,5.54853801 23.3730994,5.40818713 L26.0678363,2.03040936 C32.9450292,2.68538012 39.419883,6.54035088 43.1251462,12.9684211 C44.1169591,14.6807018 44.8467836,16.477193 45.3333333,18.3204678 L44.9403509,18.6760234 C44.425731,19.1345029 44.1169591,19.7988304 44.1076023,20.4912281 C44.1076023,20.5005848 44.1076023,20.5099415 44.1076023,20.5099415 L43.4619883,18.7321637 C43.3684211,18.4701754 43.2280702,18.2269006 43.0409357,18.0116959 L41.8900585,16.6643275 C41.4409357,16.1403509 40.7953216,15.8409357 40.102924,15.8409357 L38.6900585,15.8409357 C38.1847953,15.8409357 37.7356725,16.1122807 37.4923977,16.5520468 C37.2584795,16.9918129 37.2865497,17.5251462 37.5578947,17.9461988 L37.6982456,18.1614035 C36.7906433,18.9473684 35.7333333,19.574269 34.6105263,19.9953216 L32.6736842,16.2900585 L32.6736842,15.4666667 C32.6736842,15.2140351 32.5707602,14.9707602 32.3836257,14.7929825 L30.6432749,13.1274854 C30.5497076,13.0339181 30.4280702,12.9684211 30.3064327,12.9216374 L28.7345029,12.3695906 C28.2479532,12.2011696 27.7146199,12.4538012 27.5461988,12.9403509 C27.3777778,13.4269006 27.6304094,13.9602339 28.1169591,14.128655 L29.4923977,14.6152047 L30.8023392,15.8596491 L30.8023392,16.5146199 C30.8023392,16.6643275 30.8397661,16.8140351 30.9052632,16.9450292 L33.328655,21.5859649 C33.5438596,22.0070175 34.0397661,22.194152 34.4795322,22.0350877 L35.1812865,21.7730994 C36.8187135,21.1649123 38.3345029,20.2011696 39.5695906,18.9660819 C39.8877193,18.6479532 39.9345029,18.1614035 39.6818713,17.7871345 L39.6350877,17.7122807 L40.0842105,17.7122807 C40.2245614,17.7122807 40.3555556,17.7777778 40.4491228,17.8807018 L41.6,19.2280702 C41.6374269,19.2748538 41.6654971,19.3216374 41.6842105,19.3777778 L42.9567251,22.877193 C43.0690058,23.1766082 43.3216374,23.4011696 43.6304094,23.4666667 C43.6959064,23.4853801 43.7614035,23.4853801 43.8362573,23.4853801 C44.0795322,23.4853801 44.322807,23.3918129 44.5005848,23.2140351 L45.1087719,22.605848 C45.4923977,22.2222222 45.754386,21.7356725 45.8853801,21.2023392 C46.8210526,28.7064327 43.8830409,36.4725146 37.6608187,41.3473684 C37.2584795,41.6654971 37.1836257,42.2549708 37.5017544,42.6573099 C37.819883,43.0596491 38.4093567,43.1345029 38.8116959,42.8163743 C43.302924,39.2888889 46.3906433,34.2549708 47.4947368,28.6222222 C48.6175439,22.9520468 47.6444444,17.0573099 44.7438596,12.0327485 Z M4.47251462,26.4982456 L8.32748538,29.4362573 C8.43976608,29.5204678 8.57076023,29.5859649 8.71111111,29.6140351 L11.0409357,30.0725146 C11.3403509,30.128655 11.5836257,30.3064327 11.7426901,30.5684211 C11.8923977,30.8304094 11.9298246,31.1298246 11.8362573,31.419883 C11.6397661,32.0093567 11.6397661,32.6362573 11.8362573,33.225731 L12.1356725,34.1333333 C12.3134503,34.6760234 12.0140351,35.2654971 11.471345,35.4432749 L10.5450292,35.7426901 C10.2175439,35.845614 9.98362573,36.1169591 9.91812865,36.4538012 L9.16959064,40.3555556 C7.52280702,38.8491228 6.08187135,37.071345 4.90292398,35.0409357 C3.47134503,32.5614035 2.58245614,29.922807 2.18011696,27.2467836 L4.47251462,26.4982456 Z M2.05485746,22.5497076 C2.05485746,22.5958614 2.07032621,22.6535538 2.08579496,22.6997076 C2.07032621,22.6535538 2.05485746,22.5958614 2.05485746,22.5497076 Z M10.3204678,9.3754386 C10.6292398,10.1239766 10.4701754,10.9847953 9.91812865,11.574269 L8.81403509,12.7532164 C8.76725146,12.8093567 8.72046784,12.8654971 8.68304094,12.9309942 L6.18479532,17.2912281 L3.96725146,18.8818713 C3.55555556,19.1812865 3.45263158,19.7520468 3.74269006,20.1730994 L4.5754386,21.3894737 C4.09824561,21.4643275 3.66783626,21.5204678 3.37777778,21.548538 C3.32163743,21.4923977 3.26549708,21.445614 3.20935673,21.3894737 C2.98479532,21.1836257 2.67602339,20.902924 2.21754386,20.5005848 C2.9754386,15.794152 5.23976608,11.3684211 8.80467836,7.98128655 C9.4877193,8.20584795 10.0491228,8.71111111 10.3204678,9.3754386 Z M19.6491228,16.4023392 C19.9298246,16.3929825 20.2011696,16.3836257 20.4350877,16.3649123 C20.5567251,16.3555556 20.697076,16.3555556 20.8374269,16.3649123 C20.7812865,16.5146199 20.7625731,16.6830409 20.7812865,16.851462 C20.8280702,17.1415205 21.005848,17.394152 21.2678363,17.5345029 C21.445614,17.6280702 21.6888889,17.7871345 21.9508772,17.9649123 C22.6807018,18.451462 23.5134503,19.0035088 24.2900585,19.0502924 C25.0011696,19.097076 25.394152,18.6947368 25.5625731,18.5169591 C25.5719298,18.5076023 25.5906433,18.4888889 25.6,18.4795322 C25.6935673,18.4046784 25.7871345,18.3017544 25.8526316,18.1707602 C26.0023392,18.2175439 26.1614035,18.2549708 26.3204678,18.3017544 C26.8725146,18.451462 27.9017544,18.7321637 28.1356725,18.9754386 C28.5380117,19.405848 28.8561404,20.219883 29.1368421,20.9403509 C29.277193,21.3052632 29.4081871,21.651462 29.5578947,21.9695906 C29.6233918,22.1099415 29.6888889,22.2502924 29.7450292,22.3906433 C30.1754386,23.354386 30.6619883,24.4491228 31.7005848,25.122807 C32.1684211,25.4315789 32.748538,25.5157895 33.2538012,25.6 C33.3192982,25.6093567 33.3847953,25.6187135 33.4596491,25.6280702 C33.1602339,26.0491228 32.7298246,26.451462 32.271345,26.8725146 C31.1111111,27.948538 29.6701754,29.2959064 30.3345029,31.4385965 C30.6432749,32.4491228 30.6619883,32.5614035 30.1567251,33.1040936 C30.0912281,33.1789474 30.025731,33.2444444 29.9602339,33.3099415 C29.5298246,33.7684211 29.1836257,34.1333333 28.902924,35.0222222 C28.8187135,35.2842105 28.7157895,35.3964912 28.5192982,35.6210526 C28.3695906,35.7988304 28.1730994,36.0140351 27.9953216,36.3134503 C27.780117,36.6783626 27.7146199,37.0245614 27.6584795,37.3052632 C27.6023392,37.5859649 27.574269,37.7169591 27.4619883,37.8573099 C27.2187135,38.1567251 26.7508772,38.605848 26.2830409,38.9052632 C25.8432749,39.1859649 25.5906433,39.2233918 25.497076,39.2140351 C25.394152,39.1111111 25.0385965,38.6339181 24.4865497,37.0152047 C24.3555556,36.6128655 24.1684211,36.2011696 23.9812865,35.8081871 C23.5789474,34.928655 23.1672515,34.0210526 23.3730994,33.4035088 C23.4011696,33.328655 23.419883,33.2631579 23.4385965,33.1883041 C23.7567251,32.2152047 24.0654971,31.2888889 23.5040936,29.9508772 C23.3356725,29.5391813 23.0643275,29.2397661 22.8210526,28.9777778 C22.6619883,28.8093567 22.4935673,28.6128655 22.4654971,28.5005848 C22.4280702,28.3695906 22.4374269,28.2105263 22.4374269,28.0233918 C22.4374269,27.5368421 22.4467836,26.7976608 21.7076023,26.1052632 C20.6690058,25.1321637 19.4619883,25.4315789 18.6666667,25.6280702 C18.4233918,25.6842105 18.1894737,25.7497076 17.9836257,25.7684211 C16.6736842,25.9181287 15.4947368,25.4222222 14.7649123,24.4116959 C13.9976608,23.3450292 13.8853801,21.9134503 14.4748538,20.6690058 C14.7555556,20.0701754 15.1859649,19.5836257 15.6818713,19.0222222 C15.794152,18.9005848 15.897076,18.7789474 16.0093567,18.6479532 C16.1871345,18.4421053 16.3929825,18.1520468 16.6081871,17.8526316 C16.8608187,17.497076 17.3380117,16.8233918 17.5345029,16.6923977 C17.9649123,16.4584795 18.9380117,16.4210526 19.6491228,16.4023392 Z" id="Shape" fill="#000000" fill-rule="nonzero"></path>
                    <path d="M35.0409357,39.5976608 C35.9953216,39.4385965 36.7157895,38.4467836 37.2959064,36.4725146 L38.4,32.7672515 C38.4467836,32.5988304 38.4467836,32.4304094 38.4093567,32.2619883 L37.9602339,30.5684211 C37.8573099,30.194152 37.548538,29.922807 37.1649123,29.8760234 C36.7812865,29.8292398 36.4163743,30.025731 36.2292398,30.3625731 C36.1263158,30.5497076 36.0327485,30.7555556 35.948538,30.9426901 C35.7988304,31.2701754 35.6397661,31.6070175 35.4807018,31.794152 C35.3871345,31.897076 35.1532164,32.0093567 34.928655,32.1216374 C34.3859649,32.3836257 33.6561404,32.7391813 33.3660819,33.6374269 C33.1883041,34.1988304 33.2538012,34.6385965 33.3005848,34.9567251 C33.3380117,35.2374269 33.3473684,35.3309942 33.2725146,35.5087719 L33.2631579,35.5274854 C32.9637427,36.2292398 32.4116959,37.5298246 33.1883041,38.6339181 C33.7403509,39.419883 34.3298246,39.625731 34.7789474,39.625731 C34.8818713,39.6163743 34.9660819,39.6163743 35.0409357,39.5976608 Z M34.7321637,37.548538 C34.554386,37.2959064 34.8163743,36.6690058 34.994152,36.2479532 L35.0035088,36.2292398 C35.2842105,35.5555556 35.2093567,35.0502924 35.1532164,34.6666667 C35.1157895,34.4233918 35.1064327,34.3204678 35.1532164,34.180117 C35.1906433,34.0678363 35.405848,33.9461988 35.7426901,33.7871345 C35.8923977,33.7122807 36.051462,33.6374269 36.2105263,33.5438596 L35.4994152,35.9298246 C35.2,36.9403509 34.9380117,37.4081871 34.7789474,37.6140351 C34.7789474,37.6046784 34.7602339,37.5859649 34.7321637,37.548538 Z" id="Shape" fill="#000000" fill-rule="nonzero"></path>
                    <path d="M25.2538012,11.1438596 C24.7672515,10.9754386 24.2339181,11.2280702 24.0654971,11.7146199 C23.897076,12.2011696 24.1497076,12.7345029 24.6362573,12.902924 L24.7017544,12.9216374 C24.8046784,12.9590643 24.9076023,12.9777778 25.0105263,12.9777778 C25.394152,12.9777778 25.7590643,12.7345029 25.8900585,12.3508772 C26.0584795,11.8643275 25.805848,11.3309942 25.3192982,11.1625731 L25.2538012,11.1438596 Z" id="Path" fill="#000000"></path>
                </g>
                <rect id="Rectangle" x="0" y="0" width="48" height="48"></rect>
            </g>
        </g>
    </g>
</svg>