<?xml version="1.0" encoding="UTF-8"?>
<svg width="48px" height="48px" viewBox="0 0 48 48" version="1.1" xmlns="http://www.w3.org/2000/svg" xmlns:xlink="http://www.w3.org/1999/xlink">
    <!-- Generator: sketchtool 53 (72520) - https://sketchapp.com -->
    <title>9E2CA085-A764-4858-B19E-F5A8EFAC025C</title>
    <desc>Created with sketchtool.</desc>
    <defs>
        <linearGradient x1="7.20778359%" y1="47.1430287%" x2="93.5958995%" y2="53.1848252%" id="linearGradient-1">
            <stop stop-color="#FFFFFF" stop-opacity="0.2" offset="0%"></stop>
            <stop stop-color="#FFFFFF" stop-opacity="0" offset="100%"></stop>
        </linearGradient>
    </defs>
    <g id="Mobile" stroke="none" stroke-width="1" fill="none" fill-rule="evenodd">
        <g id="Home-Page-Mobile" transform="translate(-34.000000, -3529.000000)">
            <g id="Group-30" transform="translate(34.000000, 3529.000000)">
                <g id="profile2">
                    <path d="M43.5778723,0.0714893617 L4.36085106,0.0714893617 C1.9506383,0.0714893617 0,2.02212766 0,4.42212766 L0,43.6391489 C0,46.0493617 1.9506383,48 4.36085106,48 L43.5778723,48 C45.9778723,48 47.9387234,46.0493617 47.9387234,43.6391489 L47.9387234,4.42212766 C47.9285106,2.02212766 45.9778723,0.0714893617 43.5778723,0.0714893617 Z" id="Path" fill="#000000"></path>
                    <path d="M4.36085106,2.24680851 L43.5778723,2.24680851 C44.7829787,2.24680851 45.7531915,3.22723404 45.7531915,4.42212766 L45.7531915,8.78297872 L2.17531915,8.78297872 L2.17531915,4.42212766 C2.17531915,3.22723404 3.15574468,2.24680851 4.36085106,2.24680851 Z" id="SVGCleanerId_0" fill="#5C6671"></path>
                    <path d="M4.36085106,2.24680851 L43.5778723,2.24680851 C44.7829787,2.24680851 45.7531915,3.22723404 45.7531915,4.42212766 L45.7531915,8.78297872 L2.17531915,8.78297872 L2.17531915,4.42212766 C2.17531915,3.22723404 3.15574468,2.24680851 4.36085106,2.24680851 Z" id="SVGCleanerId_0_1_" fill="url(#linearGradient-1)"></path>
                    <path d="M4.36085106,2.24680851 L43.5778723,2.24680851 C44.7829787,2.24680851 45.7531915,3.22723404 45.7531915,4.42212766 L45.7531915,8.78297872 L2.17531915,8.78297872 L2.17531915,4.42212766 C2.17531915,3.22723404 3.15574468,2.24680851 4.36085106,2.24680851 Z" id="SVGCleanerId_0_2_" fill="#2274A5"></path>
                    <path d="M43.5778723,45.8246809 L4.36085106,45.8246809 C3.15574468,45.8246809 2.18553191,44.8442553 2.18553191,43.6493617 L2.18553191,10.9685106 L45.7531915,10.9685106 L45.7531915,43.6493617 C45.7531915,44.8442553 44.772766,45.8246809 43.5778723,45.8246809 Z" id="Path" fill="#FFFFFF"></path>
                    <g id="Group" transform="translate(4.289362, 4.391489)" fill="#000000">
                        <circle id="Oval" cx="1.15404255" cy="1.12340426" r="1.09276596"></circle>
                        <circle id="Oval" cx="5.51489362" cy="1.12340426" r="1.09276596"></circle>
                        <circle id="Oval" cx="9.87574468" cy="1.12340426" r="1.09276596"></circle>
                        <path d="M3.33957447,30.5361702 L25.1234043,30.5361702 C25.7259574,30.5361702 26.2161702,30.0459574 26.2161702,29.4434043 L26.2161702,12.0204255 C26.2161702,11.4178723 25.7259574,10.9276596 25.1234043,10.9276596 L3.33957447,10.9276596 C2.73702128,10.9276596 2.24680851,11.4178723 2.24680851,12.0204255 L2.24680851,29.453617 C2.24680851,30.0459574 2.73702128,30.5361702 3.33957447,30.5361702 Z" id="Path"></path>
                    </g>
                    <rect id="Rectangle" fill="#FFCA28" x="8.71148936" y="17.4944681" width="19.6085106" height="15.2476596"></rect>
                    <g id="Group" transform="translate(6.536170, 19.608511)" fill="#000000">
                        <path d="M7.62893617,0.0714893617 C5.83148936,0.0714893617 4.36085106,1.54212766 4.36085106,3.33957447 L4.36085106,9.87574468 C4.36085106,10.4782979 4.85106383,10.9685106 5.45361702,10.9685106 C6.05617021,10.9685106 6.54638298,10.4782979 6.54638298,9.87574468 L6.54638298,8.78297872 L8.72170213,8.78297872 L8.72170213,9.87574468 C8.72170213,10.4782979 9.21191489,10.9685106 9.81446809,10.9685106 C10.4170213,10.9685106 10.907234,10.4782979 10.907234,9.87574468 L10.907234,3.33957447 C10.8970213,1.53191489 9.42638298,0.0714893617 7.62893617,0.0714893617 Z M6.53617021,6.60765957 L6.53617021,3.33957447 C6.53617021,2.73702128 7.02638298,2.24680851 7.62893617,2.24680851 C8.23148936,2.24680851 8.72170213,2.73702128 8.72170213,3.33957447 L8.72170213,6.60765957 L6.53617021,6.60765957 Z" id="Shape" fill-rule="nonzero"></path>
                        <path d="M16.3404255,0.0714893617 L14.1651064,0.0714893617 C13.5625532,0.0714893617 13.0723404,0.561702128 13.0723404,1.16425532 L13.0723404,9.87574468 C13.0723404,10.4782979 13.5625532,10.9685106 14.1651064,10.9685106 L16.3404255,10.9685106 C18.1378723,10.9685106 19.6085106,9.49787234 19.6085106,7.70042553 L19.6085106,3.33957447 C19.6085106,1.53191489 18.1378723,0.0714893617 16.3404255,0.0714893617 Z M17.4331915,7.69021277 C17.4331915,8.29276596 16.9429787,8.78297872 16.3404255,8.78297872 L15.2476596,8.78297872 L15.2476596,2.24680851 L16.3404255,2.24680851 C16.9429787,2.24680851 17.4331915,2.73702128 17.4331915,3.33957447 L17.4331915,7.69021277 L17.4331915,7.69021277 Z" id="Shape" fill-rule="nonzero"></path>
                        <path d="M33.773617,19.68 L1.09276596,19.68 C0.490212766,19.68 -1.42108547e-14,20.1702128 -1.42108547e-14,20.772766 C-1.42108547e-14,21.3753191 0.490212766,21.8553191 1.09276596,21.8553191 L33.773617,21.8553191 C34.3761702,21.8553191 34.866383,21.3651064 34.866383,20.7625532 C34.8561702,20.16 34.3761702,19.68 33.773617,19.68 Z" id="Path"></path>
                        <path d="M33.773617,0.0714893617 L27.2374468,0.0714893617 C26.6348936,0.0714893617 26.1446809,0.561702128 26.1446809,1.16425532 C26.1446809,1.76680851 26.6348936,2.25702128 27.2374468,2.25702128 L33.773617,2.25702128 C34.3761702,2.25702128 34.866383,1.76680851 34.866383,1.16425532 C34.866383,0.561702128 34.3761702,0.0714893617 33.773617,0.0714893617 Z" id="Path"></path>
                        <path d="M33.773617,6.60765957 L27.2374468,6.60765957 C26.6348936,6.60765957 26.1446809,7.09787234 26.1446809,7.70042553 C26.1446809,8.30297872 26.6348936,8.79319149 27.2374468,8.79319149 L33.773617,8.79319149 C34.3761702,8.79319149 34.866383,8.30297872 34.866383,7.70042553 C34.8561702,7.08765957 34.3761702,6.60765957 33.773617,6.60765957 Z" id="Path"></path>
                        <path d="M33.773617,13.1438298 L27.2374468,13.1438298 C26.6348936,13.1438298 26.1446809,13.6340426 26.1446809,14.2365957 C26.1446809,14.8391489 26.6348936,15.3293617 27.2374468,15.3293617 L33.773617,15.3293617 C34.3761702,15.3293617 34.866383,14.8391489 34.866383,14.2365957 C34.8561702,13.6238298 34.3761702,13.1438298 33.773617,13.1438298 Z" id="Path"></path>
                    </g>
                </g>
                <rect id="Rectangle" x="0" y="0" width="48" height="48"></rect>
            </g>
        </g>
    </g>
</svg>