<?xml version="1.0" encoding="UTF-8"?>
<svg width="26px" height="24px" viewBox="0 0 26 24" version="1.1" xmlns="http://www.w3.org/2000/svg" xmlns:xlink="http://www.w3.org/1999/xlink">
    <!-- Generator: sketchtool 53 (72520) - https://sketchapp.com -->
    <title>B4501C8A-FA29-45AA-92E5-DD7F78778153</title>
    <desc>Created with sketchtool.</desc>
    <g id="Mobile" stroke="none" stroke-width="1" fill="none" fill-rule="evenodd">
        <g id="Mobile-menu" transform="translate(-302.000000, -131.000000)">
            <g id="Group-2" transform="translate(302.000000, 130.000000)">
                <path d="M24.7,5.29919679 L19.0666667,5.29919679 L19.0666667,3.57050424 C19.0651855,2.37759666 18.09611,1.41111571 16.9,1.40963855 L9.1,1.40963855 C7.90388999,1.41111571 6.93481447,2.37759666 6.93333333,3.57050424 L6.93333333,5.29919679 L1.3,5.29919679 C0.582080092,5.29919679 0,5.87971843 0,6.5957162 L0,16.2157889 C0.00275064833,16.7640242 0.349121067,17.2516961 0.866666667,17.4359183 L0.866666667,23.4504685 C0.866666667,24.1664663 1.44874676,24.746988 2.16666667,24.746988 L23.8333333,24.746988 C24.5512532,24.746988 25.1333333,24.1664663 25.1333333,23.4504685 L25.1333333,17.4363404 C25.6508789,17.2519071 25.9974609,16.7640242 26,16.2157889 L26,6.5957162 C26,5.87971843 25.4179199,5.29919679 24.7,5.29919679 Z M7.8,3.57050424 C7.8,2.85450647 8.38208009,2.27398483 9.1,2.27398483 L16.9,2.27398483 C17.6179199,2.27398483 18.2,2.85450647 18.2,3.57050424 L18.2,5.29919679 L17.3333333,5.29919679 L17.3333333,3.57050424 C17.3333333,3.3318383 17.1393067,3.1383311 16.9,3.1383311 L9.1,3.1383311 C8.86069335,3.1383311 8.66666667,3.3318383 8.66666667,3.57050424 L8.66666667,5.29919679 L7.8,5.29919679 L7.8,3.57050424 Z M16.4666667,5.29919679 L9.53333333,5.29919679 L9.53333333,4.00267738 L16.4666667,4.00267738 L16.4666667,5.29919679 Z M24.2666667,23.4504685 C24.2666667,23.6891345 24.07264,23.8826417 23.8333333,23.8826417 L2.16666667,23.8826417 C1.92736001,23.8826417 1.73333333,23.6891345 1.73333333,23.4504685 L1.73333333,17.5844779 L11.2666667,18.8957688 L11.2666667,19.9930834 C11.2666667,20.7090812 11.8487468,21.2896029 12.5666667,21.2896029 L13.4333333,21.2896029 C14.1512532,21.2896029 14.7333333,20.7090812 14.7333333,19.9930834 L14.7333333,18.8957688 L24.2666667,17.5844779 L24.2666667,23.4504685 Z M13.8666667,19.9930834 C13.8666667,20.2317494 13.67264,20.4252566 13.4333333,20.4252566 L12.5666667,20.4252566 C12.32736,20.4252566 12.1333333,20.2317494 12.1333333,19.9930834 L12.1333333,17.4000446 C12.1333333,17.1613787 12.32736,16.9678715 12.5666667,16.9678715 L13.4333333,16.9678715 C13.67264,16.9678715 13.8666667,17.1613787 13.8666667,17.4000446 L13.8666667,19.9930834 Z M25.1333333,16.2157889 C25.1335449,16.4312424 24.9746419,16.6139875 24.7607259,16.6441637 L24.6405436,16.6606234 L14.7333333,18.0231927 L14.7333333,17.4000446 C14.7333333,16.6840469 14.1512532,16.1035252 13.4333333,16.1035252 L12.5666667,16.1035252 C11.8487468,16.1035252 11.2666667,16.6840469 11.2666667,17.4000446 L11.2666667,18.0231927 L1.23969728,16.6441637 C1.02578125,16.6141985 0.866455092,16.4314534 0.866666667,16.2157889 L0.866666667,6.5957162 C0.866666667,6.35705026 1.06069335,6.16354306 1.3,6.16354306 L24.7,6.16354306 C24.9393067,6.16354306 25.1333333,6.35705026 25.1333333,6.5957162 L25.1333333,16.2157889 Z" id="Shape" fill="#252B33" fill-rule="nonzero"></path>
                <rect id="Rectangle" x="0" y="0" width="26" height="26"></rect>
            </g>
        </g>
    </g>
</svg>