<svg width="60" height="72" viewBox="0 0 60 72" fill="none" xmlns="http://www.w3.org/2000/svg">
<path fill-rule="evenodd" clip-rule="evenodd" d="M29.4292 71.9966C25.3303 71.9966 21.2568 71.4053 17.3212 70.2391C15.903 69.8191 15.0172 68.4108 15.2533 66.9507L16.1426 61.4519C16.4021 59.8483 17.9161 58.7593 19.5152 59.0193C21.1183 59.2784 22.2073 60.7878 21.9482 62.3909L21.4869 65.2464C26.6599 66.3917 32.071 66.4037 37.2564 65.2698L34.1852 46.2678C33.9755 44.971 34.6505 43.6932 35.8401 43.1358C41.1376 40.6524 44.5605 35.2722 44.5605 29.4287C44.5605 21.0854 37.7725 14.2974 29.4292 14.2974C21.0859 14.2974 14.2979 21.0854 14.2979 29.4287C14.2979 35.2309 17.6844 40.5941 22.9256 43.0939C24.3912 43.7934 25.0129 45.5479 24.314 47.0135C23.6151 48.4796 21.861 49.1013 20.3939 48.4019C13.1182 44.9327 8.4165 37.4851 8.4165 29.4287C8.4165 17.8423 17.8428 8.41602 29.4292 8.41602C41.0156 8.41602 50.4414 17.8423 50.4414 29.4287C50.4414 36.7856 46.5348 43.6145 40.3241 47.3936L43.4915 66.9825C43.7276 68.4467 42.8374 69.8575 41.4151 70.2744C37.5139 71.4172 33.4818 71.9966 29.4292 71.9966Z" fill="white"/>
<path fill-rule="evenodd" clip-rule="evenodd" d="M57.0596 59.9998C56.3073 59.9998 55.5541 59.7128 54.9807 59.1384L46.08 50.2377C44.9312 49.0899 44.9312 47.2277 46.08 46.0795C50.5276 41.6313 52.9771 35.7181 52.9771 29.4287C52.9771 16.4445 42.4135 5.88086 29.4292 5.88086C16.4445 5.88086 5.88136 16.4445 5.88136 29.4287C5.88136 39.2461 12.0616 48.1205 21.2628 51.5229C21.2762 51.5269 21.2887 51.5319 21.3006 51.5364C23.9055 52.4919 26.6405 52.9766 29.4292 52.9766C31.0528 52.9766 32.3694 54.2932 32.3694 55.9173C32.3694 57.5408 31.0528 58.8575 29.4292 58.8575C25.959 58.8575 22.554 58.2562 19.308 57.0695C19.2925 57.064 19.2771 57.0586 19.2626 57.0536C7.74152 52.8122 0 41.7105 0 29.4287C0 13.2014 13.2019 0 29.4292 0C45.6565 0 58.858 13.2014 58.858 29.4287C58.858 36.3009 56.5181 42.8135 52.2159 48.0567L59.1384 54.9802C60.2872 56.128 60.2872 57.9901 59.1384 59.1384C58.565 59.7128 57.8118 59.9998 57.0596 59.9998Z" fill="white"/>
</svg>
