<?xml version="1.0" encoding="UTF-8"?>
<svg width="18px" height="18px" viewBox="0 0 18 18" version="1.1" xmlns="http://www.w3.org/2000/svg" xmlns:xlink="http://www.w3.org/1999/xlink">
    <!-- Generator: sketchtool 53 (72520) - https://sketchapp.com -->
    <title>8F139C0B-3EBA-4943-8B4F-DC4E75AA091D</title>
    <desc>Created with sketchtool.</desc>
    <g id="Mobile" stroke="none" stroke-width="1" fill="none" fill-rule="evenodd">
        <g id="Sign-up-mobile" transform="translate(-31.000000, -23.000000)">
            <g id="Group-Copy" transform="translate(24.000000, 16.000000)">
                <g id="close-2-copy" transform="translate(7.000000, 7.000000)" fill="#252B33">
                    <g id="close">
                        <path d="M17.7870585,0.212967877 C17.5031013,-0.0709892925 17.04273,-0.0709892925 16.7587728,0.212967877 L0.212967877,16.7587377 C-0.0709892925,17.0426948 -0.0709892925,17.5030662 0.212967877,17.7870233 C0.354928884,17.9290547 0.541046163,18 0.727128285,18 C0.913210407,18 1.09929253,17.9290195 1.24128869,17.7869882 L17.7870585,1.24121838 C18.0709805,0.957296366 18.0709805,0.496925047 17.7870585,0.212967877 Z" id="Path"></path>
                        <path d="M17.7870537,16.7587377 L1.2412205,0.212967877 C0.957298002,-0.0709892925 0.49689074,-0.0709892925 0.212968241,0.212967877 C-0.0709894138,0.496889891 -0.0709894138,0.95726121 0.212968241,1.24121838 L16.7588015,17.7870233 C16.9007627,17.9290195 17.0868803,18 17.2729628,18 C17.4590452,18 17.6451628,17.9290195 17.7870889,17.7870585 C18.0709762,17.5030662 18.0709762,17.0426948 17.7870537,16.7587377 Z" id="Path"></path>
                    </g>
                </g>
                <rect id="Rectangle" x="0" y="0" width="32" height="32"></rect>
            </g>
        </g>
    </g>
</svg>