<?xml version="1.0" encoding="UTF-8"?>
<svg width="25px" height="26px" viewBox="0 0 25 26" version="1.1" xmlns="http://www.w3.org/2000/svg" xmlns:xlink="http://www.w3.org/1999/xlink">
    <!-- Generator: sketchtool 53 (72520) - https://sketchapp.com -->
    <title>B02A8DF1-9432-440E-A109-1F7DB3BB6EA3</title>
    <desc>Created with sketchtool.</desc>
    <g id="Mobile" stroke="none" stroke-width="1" fill="none" fill-rule="evenodd">
        <g id="Mobile-menu" transform="translate(-302.000000, -315.000000)">
            <g id="Group-4" transform="translate(302.000000, 315.000000)">
                <g id="gift-box" transform="translate(0.976526, 0.000000)" fill="#252B33" fill-rule="nonzero">
                    <path d="M10.4163555,5.92206114 C10.5515024,5.92206114 10.6789087,5.85821426 10.7596621,5.74977923 C10.8406247,5.64134415 10.8657294,5.50129966 10.8272355,5.37151253 C10.5201215,4.32212079 9.98936644,3.35185731 9.27116303,2.52791837 C8.69249989,1.91184815 7.83119968,1.64808721 7.00713818,1.83460389 C6.89333024,1.87814538 6.80358093,1.96815901 6.76006613,2.08203675 C6.73642589,2.146093 6.7188526,2.21224257 6.70776471,2.27964812 C6.69458473,2.35961377 6.68747176,2.44041669 6.6862165,2.521429 L6.6862165,2.52833706 C6.69144663,3.21202215 6.96676143,3.86598182 7.45232807,4.34724088 C8.27576199,5.06525676 9.24480313,5.59612799 10.292924,5.9032211 C10.3330915,5.91515313 10.3745143,5.9216425 10.4163555,5.92206114 Z M8.05986163,3.74017205 C7.8897773,3.56977408 7.75630404,3.36609203 7.66739155,3.14210454 L7.66739155,3.13791791 C7.64856306,3.09039906 7.63224498,3.04267089 7.61822823,2.99682671 C7.61090602,2.97191594 7.60567589,2.94847052 7.59939969,2.92397845 C7.59291435,2.89948638 7.58726578,2.88106498 7.58308166,2.85971287 C7.5786883,2.8381515 7.57785153,2.82956877 7.57492262,2.81428739 C7.56237028,2.75023114 7.55358361,2.68554692 7.54877192,2.62044406 C7.97136758,2.65247216 8.36823091,2.83501148 8.66781358,3.1349872 C9.09375654,3.61687429 9.4370632,4.16595754 9.68371681,4.76025701 C9.08915403,4.51261478 8.53957046,4.16784159 8.05776955,3.74017205 L8.05986163,3.74017205 Z" id="Shape"></path>
                    <path d="M23.5655659,6.21785023 L16.9519438,6.21785023 C17.2379281,6.02233218 17.5065483,5.8023221 17.7544571,5.56054122 C19.2870986,4.02235439 19.337308,1.69016335 18.358225,0.710479846 C17.379142,-0.269203656 15.0492173,-0.219800759 13.5102996,1.31545537 C12.8810087,2.00081518 12.3697097,2.78581796 11.9973235,3.63864503 C11.6249372,2.78518994 11.1132198,1.99976847 10.4833013,1.31419939 C8.94605723,-0.219382117 6.61550498,-0.269622297 5.63621271,0.710061204 C4.65671131,1.68974471 4.70733908,4.02193569 6.24018979,5.56054122 C6.48830787,5.8023221 6.75692803,6.02233218 7.04270314,6.21785023 L0.429081054,6.21785023 C0.192469311,6.21785023 0.000627619996,6.40980957 0.000627619996,6.64656643 L0.000627619996,10.9337284 C0.000627619996,11.1704852 0.192469311,11.3624446 0.429081054,11.3624446 L1.2859879,11.3624446 L1.2859879,23.7952144 C1.2874523,24.9783706 2.24582399,25.93733 3.42825501,25.9387954 L20.5663919,25.9387954 C21.7490321,25.93733 22.7074038,24.9783706 22.708659,23.7952144 L22.708659,11.3624446 L23.5655659,11.3624446 C23.8021776,11.3624446 23.9940193,11.1704852 23.9940193,10.9337284 L23.9940193,6.64656643 C23.9940193,6.40980957 23.8021776,6.21785023 23.5655659,6.21785023 Z M14.1165779,1.92126817 C15.3479631,0.692895836 17.1439947,0.7071305 17.7527834,1.3162927 C18.3615723,1.92545491 18.3762167,3.72175065 17.1485972,4.95430972 C16.5864613,5.47429558 15.944618,5.90070909 15.2475444,6.21785023 L12.6872841,6.21785023 C12.6872841,6.20884886 12.6872841,6.19901014 12.6872841,6.19000876 C12.6872841,6.09224979 12.6799619,5.99323478 12.6705476,5.8935917 C12.6669911,5.86072626 12.6632254,5.82807015 12.6594597,5.7945767 C12.649627,5.71230841 12.6374931,5.63024945 12.6228487,5.54860914 C12.6182462,5.51993038 12.6134345,5.4910423 12.6084135,5.46278219 C12.5879113,5.35602178 12.5655263,5.2509361 12.539794,5.14940908 C12.5364467,5.13475567 12.5324718,5.1219863 12.5291245,5.10649556 C12.5063211,5.01773791 12.4828901,4.93505098 12.4588314,4.84943336 C12.4554841,4.83771065 12.452346,4.82494123 12.4489987,4.81321852 C12.800046,3.74477737 13.3678304,2.76006985 14.1165779,1.92126817 L14.1165779,1.92126817 Z M13.7111372,10.5050122 L10.2835098,10.5050122 L10.2835098,7.07528263 L13.7111372,7.07528263 L13.7111372,10.5050122 Z M6.84646815,4.95472836 C5.61863943,3.72216929 5.63307467,1.92587355 6.24207263,1.3162927 C6.85086146,0.706711859 8.64605618,0.692477141 9.87702295,1.9200122 C10.6565236,2.79377262 11.2408354,3.824115 11.5908366,4.94195899 C11.6391632,5.09247021 11.6764018,5.2369107 11.7115484,5.37716456 C11.721381,5.41735671 11.7295401,5.45629282 11.7381175,5.495857 C11.7613394,5.60052399 11.7799587,5.70037639 11.7939755,5.79604205 C11.798578,5.82848884 11.8046449,5.8619823 11.8084106,5.8935917 C11.822009,6.00056143 11.8293312,6.1083685 11.8303772,6.21617556 L8.74710258,6.21617556 C8.05044733,5.89966243 7.40881327,5.47387688 6.84646815,4.95472836 Z M0.857534476,7.07528263 L9.42660293,7.07528263 L9.42660293,10.5050122 L0.857534476,10.5050122 L0.857534476,7.07528263 Z M2.14289474,23.7952144 L2.14289474,11.3624446 L10.2835098,11.3624446 L10.2835098,25.081363 L3.42825501,25.081363 C2.71841979,25.081363 2.14289474,24.5054849 2.14289474,23.7952144 Z M11.1404166,25.081363 L11.1404166,11.3624446 L12.8542303,11.3624446 L12.8542303,25.081363 L11.1404166,25.081363 Z M21.8517522,23.7952144 C21.8517522,24.5054849 21.2764363,25.081363 20.5663919,25.081363 L13.7111372,25.081363 L13.7111372,11.3624446 L21.8517522,11.3624446 L21.8517522,23.7952144 Z M23.1371125,10.5050122 L14.568044,10.5050122 L14.568044,7.07528263 L23.1371125,7.07528263 L23.1371125,10.5050122 Z" id="Shape"></path>
                    <path d="M13.5770362,5.92331717 C13.6182498,5.92331717 13.6592541,5.91745581 13.698794,5.90573311 C14.7481702,5.59884932 15.7182573,5.06693143 16.541482,4.34682219 C17.1511077,3.76340809 17.4138701,2.90513841 17.2356268,2.08015275 C17.1925304,1.96669371 17.1027812,1.87709872 16.9893916,1.83376655 C16.1649117,1.65541392 15.307168,1.91833752 14.7241115,2.52833706 C14.0046529,3.35206663 13.473061,4.32274876 13.1661561,5.37276851 C13.1278715,5.50255569 13.152767,5.6428095 13.2337296,5.75103521 C13.3146922,5.85947029 13.4418893,5.92331717 13.5770362,5.92331717 L13.5770362,5.92331717 Z M15.3299714,3.13456856 C15.6299725,2.83480216 16.0272542,2.65247216 16.4498499,2.62002536 C16.4178414,3.04308953 16.235414,3.44082428 15.9358313,3.74100938 C15.4538212,4.17014422 14.9034009,4.51554548 14.3075828,4.76318766 C14.5552825,4.1670042 14.9008904,3.61666491 15.3299714,3.13456856 Z" id="Shape"></path>
                </g>
                <g id="Rectangle-3">
                    <rect id="Rectangle" x="0" y="0" width="26" height="26"></rect>
                </g>
            </g>
        </g>
    </g>
</svg>