<?xml version="1.0" encoding="UTF-8"?>
<svg width="28px" height="28px" viewBox="0 0 28 28" version="1.1" xmlns="http://www.w3.org/2000/svg" xmlns:xlink="http://www.w3.org/1999/xlink">
    <!-- Generator: sketchtool 53.1 (72631) - https://sketchapp.com -->
    <title>2FE44D05-7BB1-4D83-800D-E6F121792E7F</title>
    <desc>Created with sketchtool.</desc>
    <g id="Desktop" stroke="none" stroke-width="1" fill="none" fill-rule="evenodd">
        <g id="Homepage-Desktop--1100" transform="translate(-747.000000, -3411.000000)" fill="#969CA6">
            <g id="Social-networks" transform="translate(592.000000, 3411.000000)">
                <path d="M179.828125,23.6614583 C179.828125,24.28125 179.335938,24.7734375 178.716146,24.7734375 L159.229167,24.7734375 C158.609375,24.7734375 158.117188,24.28125 158.117188,23.6614583 L158.117188,11.8489583 L160.6875,11.8489583 C160.450521,12.5963542 160.322917,13.4166667 160.322917,14.2369792 C160.322917,18.9036458 164.223958,22.6770833 169.018229,22.6770833 C173.830729,22.6770833 177.731771,18.9036458 177.731771,14.2369792 C177.731771,13.4166667 177.604167,12.5963542 177.367188,11.8489583 L179.828125,11.8489583 L179.828125,23.6614583 Z M174.651042,13.9453125 C174.651042,16.953125 172.135417,19.3958333 169.018229,19.3958333 C165.919271,19.3958333 163.403646,16.953125 163.403646,13.9453125 C163.403646,10.9375 165.919271,8.49479167 169.018229,8.49479167 C172.135417,8.49479167 174.651042,10.9375 174.651042,13.9453125 L174.651042,13.9453125 Z M179.828125,7.3828125 C179.828125,8.07552083 179.263021,8.640625 178.570312,8.640625 L175.398438,8.640625 C174.705729,8.640625 174.140625,8.07552083 174.140625,7.3828125 L174.140625,4.375 C174.140625,3.68229167 174.705729,3.1171875 175.398438,3.1171875 L178.570312,3.1171875 C179.263021,3.1171875 179.828125,3.68229167 179.828125,4.375 L179.828125,7.3828125 Z M183,3.59114583 C183,1.62239583 181.377604,0 179.408854,0 L158.591146,0 C156.622396,0 155,1.62239583 155,3.59114583 L155,24.4088542 C155,26.3776042 156.622396,28 158.591146,28 L179.408854,28 C181.377604,28 183,26.3776042 183,24.4088542 L183,3.59114583 Z" id="Instagram"></path>
            </g>
        </g>
    </g>
</svg>