<?xml version="1.0" encoding="UTF-8"?>
<svg width="14px" height="18px" viewBox="0 0 14 18" version="1.1" xmlns="http://www.w3.org/2000/svg" xmlns:xlink="http://www.w3.org/1999/xlink">
    <!-- Generator: sketchtool 53 (72520) - https://sketchapp.com -->
    <title>6636F48F-A2DE-49AA-9BD5-737928F5C86F</title>
    <desc>Created with sketchtool.</desc>
    <g id="Mobile" stroke="none" stroke-width="1" fill="none" fill-rule="evenodd">
        <g id="Log-in-Mobile-(1)" transform="translate(-296.000000, -350.000000)">
            <g id="Group-5" transform="translate(294.000000, 350.000000)">
                <g id="lock" transform="translate(2.250000, 0.000000)" fill="#7F7E79" fill-rule="nonzero">
                    <path d="M5.86378125,12.4563164 L5.62721484,14.5836211 C5.61550781,14.6894414 5.64953906,14.7956484 5.72058984,14.8751367 C5.79164062,14.9545898 5.89345312,15.0000117 6.00001172,15.0000117 L7.50002344,15.0000117 C7.60658203,15.0000117 7.70839453,14.9545898 7.77944531,14.8751367 C7.85049609,14.7956836 7.8845625,14.6894766 7.87282031,14.5836211 L7.63625391,12.4563164 C8.02040625,12.1768945 8.25001172,11.734875 8.25001172,11.25 C8.25001172,10.4227383 7.57729688,9.74998828 6.75,9.74998828 C5.92270312,9.74998828 5.24998828,10.4227383 5.24998828,11.25 C5.24998828,11.734875 5.47962891,12.1768945 5.86378125,12.4563164 Z M6.75,10.5000117 C7.1634375,10.5000117 7.49998828,10.8365625 7.49998828,11.25 C7.49998828,11.5374727 7.33665234,11.7949219 7.07371875,11.9223633 C6.93052734,11.9919375 6.84667969,12.1435664 6.86425781,12.3013828 L7.08106641,14.2499883 L6.41896875,14.2499883 L6.63577734,12.3013828 C6.65335547,12.1435312 6.56950781,11.9919375 6.42631641,11.9223633 C6.16338281,11.7949219 6.00004687,11.5374727 6.00004687,11.25 C6.00001172,10.8365625 6.3365625,10.5000117 6.75,10.5000117 Z" id="Shape"></path>
                    <path d="M13.1249883,6.75 L11.9999883,6.75 L11.9999883,5.24998828 C11.9999883,2.35511719 9.64490625,0 6.75,0 C3.85509375,0 1.50001172,2.35511719 1.50001172,5.24998828 L1.50001172,6.75 L0.375011719,6.75 C0.167730469,6.75 0,6.91773047 0,7.12501172 L0,16.5000234 C0,17.3272852 0.672714844,18 1.50001172,18 L12.0000234,18 C12.8272852,18 13.5,17.3272852 13.5,16.4999883 L13.5,7.12501172 C13.5,6.91773047 13.3322695,6.75 13.1249883,6.75 Z M2.25,5.24998828 C2.25,2.76855469 4.26856641,0.749988281 6.75,0.749988281 C9.23143359,0.749988281 11.25,2.76855469 11.25,5.24998828 L11.25,6.75 L10.5000117,6.75 L10.5000117,5.24998828 C10.5000117,3.18234375 8.81764453,1.49997656 6.75,1.49997656 C4.68235547,1.49997656 2.99998828,3.18237891 2.99998828,5.24998828 L2.99998828,6.75 L2.25,6.75 L2.25,5.24998828 Z M9.74998828,5.24998828 L9.74998828,6.75 L3.75001172,6.75 L3.75001172,5.24998828 C3.75001172,3.59581641 5.09582813,2.25 6.75,2.25 C8.40417188,2.25 9.74998828,3.59581641 9.74998828,5.24998828 Z M12.7500117,16.4999883 C12.7500117,16.9134258 12.4134609,17.2499766 12.0000234,17.2499766 L1.50001172,17.2499766 C1.08657422,17.2499766 0.750023438,16.9134258 0.750023438,16.4999883 L0.750023438,7.49998828 L12.7500117,7.49998828 L12.7500117,16.4999883 L12.7500117,16.4999883 Z" id="Shape"></path>
                </g>
                <rect id="Rectangle" x="0" y="0" width="18" height="18"></rect>
            </g>
        </g>
    </g>
</svg>