<?xml version="1.0" encoding="UTF-8"?>
<svg width="14px" height="18px" viewBox="0 0 14 18" version="1.1" xmlns="http://www.w3.org/2000/svg" xmlns:xlink="http://www.w3.org/1999/xlink">
    <!-- Generator: sketchtool 53.1 (72631) - https://sketchapp.com -->
    <title>80E8DD71-0520-47C8-9CFA-9A4C1E6DDA71</title>
    <desc>Created with sketchtool.</desc>
    <g id="Mobile" stroke="none" stroke-width="1" fill="none" fill-rule="evenodd">
        <g id="Search-City" transform="translate(-18.000000, -203.000000)">
            <g id="Group" transform="translate(16.000000, 203.000000)">
                <g id="placeholder-(1)" transform="translate(2.671875, 0.000000)" fill="#252B33" fill-rule="nonzero">
                    <path d="M6.40047273,3.92727273 C5.13752727,3.92727273 4.10956364,4.95523636 4.10956364,6.21818182 C4.10956364,7.48112727 5.13752727,8.50909091 6.40047273,8.50909091 C7.66341818,8.50909091 8.69138182,7.48112727 8.69138182,6.21818182 C8.69138182,4.95523636 7.66341818,3.92727273 6.40047273,3.92727273 Z M6.40047273,7.85454545 C5.49818182,7.85454545 4.76410909,7.12047273 4.76410909,6.21818182 C4.76410909,5.31589091 5.49818182,4.58181818 6.40047273,4.58181818 C7.30276364,4.58181818 8.03683636,5.31589091 8.03683636,6.21818182 C8.03683636,7.12047273 7.30276364,7.85454545 6.40047273,7.85454545 Z" id="Shape"></path>
                    <path d="M10.7803636,1.83829091 C9.59498182,0.652909091 8.01883636,0 6.34254545,0 C4.66592727,0 3.09010909,0.652909091 1.90472727,1.83829091 C-0.288981818,4.03167273 -0.5616,8.15858182 1.31432727,10.6589455 L6.34254545,17.9204727 L11.3632364,10.6690909 C13.2466909,8.15858182 12.9740727,4.03167273 10.7803636,1.83829091 Z M10.8324,10.2865091 L6.34254545,16.7704364 L1.84549091,10.2763636 C0.144,8.00770909 0.387818182,4.28072727 2.36781818,2.30105455 C3.42949091,1.23938182 4.84101818,0.654545455 6.34254545,0.654545455 C7.84407273,0.654545455 9.2556,1.23938182 10.3176,2.30105455 C12.2976,4.28072727 12.5414182,8.00770909 10.8324,10.2865091 Z" id="Shape"></path>
                </g>
                <rect id="Rectangle" x="0" y="0" width="18" height="18"></rect>
            </g>
        </g>
    </g>
</svg>