<?xml version="1.0" encoding="UTF-8"?>
<svg width="35px" height="24px" viewBox="0 0 35 24" version="1.1" xmlns="http://www.w3.org/2000/svg" xmlns:xlink="http://www.w3.org/1999/xlink">
    <!-- Generator: sketchtool 53 (72520) - https://sketchapp.com -->
    <title>FF61ADBB-B902-4746-9BEE-6F6C535365A1</title>
    <desc>Created with sketchtool.</desc>
    <g id="Desktop" stroke="none" stroke-width="1" fill="none" fill-rule="evenodd">
        <g id="Pay-on-arrival" transform="translate(-108.000000, -73.000000)">
            <g id="Icon/white/Mastercard-" transform="translate(108.000000, 73.000000)">
                <g id="Mastercard-">
                    <path d="M0.5,3.99005301 L0.5,20.009947 C0.5,21.9385731 2.0650676,23.5 3.99789262,23.5 L31.0021074,23.5 C32.9380631,23.5 34.5,21.9394693 34.5,20.009947 L34.5,3.99005301 C34.5,2.06142689 32.9349324,0.5 31.0021074,0.5 L3.99789262,0.5 C2.06193694,0.5 0.5,2.06053071 0.5,3.99005301 Z" id="Rectangle-Copy-4" stroke="#E6E7E8" fill="#FFFFFF"></path>
                    <g id="mc_symbol" transform="translate(6.893939, 5.217391)">
                        <g id="Group" opacity="0" fill="#FFFFFF">
                            <rect id="Rectangle" x="0" y="0" width="21.1140955" height="13.5496252"></rect>
                        </g>
                        <rect id="Rectangle" fill="#FF5F00" x="7.77295684" y="2.36065967" width="5.5697888" height="8.82674663"></rect>
                        <path d="M8.3466483,6.77481259 C8.3452498,5.0526539 9.16003814,3.42551032 10.5562443,2.36221889 C8.18430974,0.553531312 4.77811665,0.816982299 2.73144594,2.96742558 C0.684775236,5.11786886 0.684775236,8.43331555 2.73144594,10.5837588 C4.77811665,12.7342021 8.18430974,12.9976531 10.5562443,11.1889655 C9.15959382,10.1253364 8.3447557,8.49751845 8.3466483,6.77481259 Z" id="Path" fill="#EB001B"></path>
                        <path d="M19.483214,10.8836273 L19.483214,10.180597 L19.6498806,10.180597 L19.6498806,10.0351424 L19.253214,10.0351424 L19.253214,10.180597 L19.4098806,10.180597 L19.4098806,10.8836273 L19.483214,10.8836273 Z M20.253214,10.8836273 L20.253214,10.0351424 L20.133214,10.0351424 L19.993214,10.641203 L19.853214,10.0351424 L19.733214,10.0351424 L19.733214,10.8836273 L19.8198806,10.8836273 L19.8198806,10.241203 L19.9498806,10.7927182 L20.0398806,10.7927182 L20.1698806,10.241203 L20.1698806,10.8836273 L20.253214,10.8836273 Z" id="Shape" fill="#F79E1B" fill-rule="nonzero"></path>
                        <path d="M19.9168962,6.77481259 C19.9168446,8.92394537 18.6521108,10.8843953 16.6598321,11.8235517 C14.6675534,12.7627081 12.2975007,12.5156897 10.5562443,11.1874063 C11.9518412,10.1232122 12.7666908,8.49628491 12.7666908,6.77403298 C12.7666908,5.05178105 11.9518412,3.42485381 10.5562443,2.36065967 C12.2975007,1.03237622 14.6675534,0.785357883 16.6598321,1.7245143 C18.6521108,2.66367071 19.9168446,4.6241206 19.9168962,6.77325337 L19.9168962,6.77481259 Z" id="Path" fill="#F79E1B"></path>
                    </g>
                </g>
            </g>
        </g>
    </g>
</svg>