<?xml version="1.0" encoding="UTF-8"?>
<svg width="26px" height="26px" viewBox="0 0 26 26" version="1.1" xmlns="http://www.w3.org/2000/svg" xmlns:xlink="http://www.w3.org/1999/xlink">
    <!-- Generator: sketchtool 53 (72520) - https://sketchapp.com -->
    <title>DABAA693-F1C6-4B78-BDA6-187E66DF921C</title>
    <desc>Created with sketchtool.</desc>
    <g id="Mobile" stroke="none" stroke-width="1" fill="none" fill-rule="evenodd">
        <g id="Mobile-menu" transform="translate(-302.000000, -360.000000)" fill="#252B33" fill-rule="nonzero">
            <g id="phone-call-(1)" transform="translate(302.000000, 360.000000)">
                <path d="M25.9822473,21.3996102 C25.8995877,20.7748368 25.5389066,20.236148 24.992803,19.9217397 L18.5784861,16.2286359 C17.792883,15.7763125 16.7962509,15.9079945 16.1550214,16.549165 L14.8915987,17.812582 C14.555401,18.1488343 14.0235045,18.1785961 13.6546249,17.881708 C12.6586105,17.0802729 11.6779263,16.1982564 10.7398635,15.2601417 C9.80180064,14.3220831 8.91978011,13.3414595 8.11828531,12.3453934 C7.82139586,11.9764593 7.85110165,11.4446213 8.18741164,11.108369 L9.45077814,9.84495208 C10.0919515,9.20383775 10.2238026,8.20732247 9.77136484,7.4215545 L6.07824433,1.00726654 C5.76377849,0.461109234 5.22514343,0.100485932 4.60036719,0.0178267137 C3.9755348,-0.0650009678 3.36159641,0.143387863 2.91595339,0.589028867 L1.01225581,2.49277399 C-0.31641851,3.82149846 -0.337757264,6.25197149 0.952170378,9.33658665 C2.19251349,12.3025477 4.50720669,15.5675868 7.46975567,18.5302347 C10.432417,21.4928264 13.6974708,23.8075092 16.6635014,25.0478467 C18.181866,25.682784 19.5415938,26.0000562 20.6896188,26 C21.8738073,26 22.8326473,25.6623438 23.507345,24.9877053 L25.4110426,23.0839602 C25.8566294,22.6383192 26.0648507,22.0243836 25.9822473,21.3996102 L25.9822473,21.3996102 Z M18.1582249,16.9585864 L24.5725419,20.6516903 C24.8897593,20.8343042 25.099216,21.1471963 25.147172,21.5100658 C25.1874911,21.8145909 25.1083692,22.1144552 24.9290114,22.3560874 L16.4044602,17.4909859 L16.7506534,17.1447943 C17.1230146,16.7724347 17.7019687,16.6958963 18.1582249,16.9585864 L18.1582249,16.9585864 Z M4.48985491,0.852898206 C4.85278218,0.900910184 5.16561954,1.11036595 5.34823434,1.42758193 L9.04135485,7.84186989 C9.30415845,8.29823638 9.22756355,8.87707552 8.85520231,9.24937893 L8.53719873,9.56738108 L3.64534567,1.0710579 C3.84531225,0.922978848 4.08447475,0.842565804 4.33380124,0.842565804 C4.38551964,0.842565804 4.43768728,0.84599122 4.48985491,0.852898206 Z M22.9116569,24.392076 C21.8560624,25.4476657 19.6971421,25.4034161 16.9884682,24.2706703 C14.1212136,23.0716624 10.9523525,20.8214449 8.06544381,17.9346054 C5.1785351,15.0477097 2.9283074,11.8788069 1.72929408,9.01162137 C0.596487052,6.30290349 0.55229337,4.14399296 1.60788781,3.08834714 L3.02113098,1.6750542 L7.92034029,10.1842367 L7.59177964,10.5127959 C6.95077472,11.1538541 6.89495704,12.1686757 7.46200633,12.8735252 C8.28236909,13.8930638 9.18482989,14.8964299 10.1441753,15.855771 C11.1036331,16.8151682 12.1070037,17.7176249 13.1264907,18.537984 C13.8312311,19.1050307 14.8460573,19.0492694 15.4872307,18.4081551 L15.786984,18.1084031 L24.3233839,22.9802993 L22.9116569,24.392076 Z" id="Shape"></path>
            </g>
        </g>
    </g>
</svg>