<svg width="17" height="17" viewBox="0 0 17 17" fill="none" xmlns="http://www.w3.org/2000/svg">
<path d="M16.0774 7.31492H9.68602V0.923485C9.68602 0.632329 9.29066 0.00100708 8.49997 0.00100708C7.70928 0.00100708 7.31391 0.632363 7.31391 0.923485V7.31495H0.922478C0.631356 7.31492 0 7.71028 0 8.50094C0 9.29159 0.631356 9.68699 0.922478 9.68699H7.31395V16.0785C7.31395 16.3695 7.70927 17.0009 8.5 17.0009C9.29072 17.0009 9.68605 16.3695 9.68605 16.0785V9.68699H16.0775C16.3686 9.68699 17 9.29166 17 8.50094C17 7.71021 16.3685 7.31492 16.0774 7.31492Z" fill="#252B33"/>
</svg>
