<?xml version="1.0" encoding="UTF-8"?>
<svg width="18px" height="18px" viewBox="0 0 18 18" version="1.1" xmlns="http://www.w3.org/2000/svg" xmlns:xlink="http://www.w3.org/1999/xlink">
    <!-- Generator: sketchtool 53 (72520) - https://sketchapp.com -->
    <title>3A20A553-5AEE-4202-84E7-266B25CA7C5B</title>
    <desc>Created with sketchtool.</desc>
    <g id="Mobile" stroke="none" stroke-width="1" fill="none" fill-rule="evenodd">
        <g id="Home-Page-Mobile" transform="translate(-40.000000, -224.000000)" fill="#7F7E79">
            <g id="Search" transform="translate(40.000000, 224.000000)">
                <path d="M18,16.7199497 L13.2309629,11.9509125 C14.2391441,10.6595343 14.8055381,9.07363121 14.8055381,7.3971051 C14.8055381,5.41472624 14.0352423,3.55695406 12.6305853,2.16362492 C11.2372561,0.770295784 9.37948395,0 7.3971051,0 C5.42605412,0 3.56828194,0.770295784 2.16362492,2.16362492 C0.770295784,3.55695406 0,5.41472624 0,7.3971051 C0,9.37948395 0.770295784,11.2372561 2.16362492,12.6305853 C3.56828194,14.0239144 5.42605412,14.7942102 7.3971051,14.7942102 C9.07363121,14.7942102 10.6595343,14.2391441 11.9509125,13.2309629 L16.7199497,18 L18,16.7199497 Z M3.43234739,11.3505349 C2.37885463,10.2970422 1.80113279,8.89238515 1.80113279,7.3971051 C1.80113279,5.90182505 2.37885463,4.49716803 3.44367527,3.43234739 C4.49716803,2.37885463 5.90182505,1.80113279 7.3971051,1.80113279 C8.89238515,1.80113279 10.2970422,2.37885463 11.3618628,3.43234739 C12.4153556,4.49716803 12.9930774,5.90182505 12.9930774,7.3971051 C12.9930774,8.89238515 12.4153556,10.2970422 11.3618628,11.3505349 C10.2970422,12.4153556 8.89238515,12.9930774 7.3971051,12.9930774 C5.90182505,12.9930774 4.49716803,12.4153556 3.43234739,11.3505349 L3.43234739,11.3505349 Z" id="search"></path>
            </g>
        </g>
    </g>
</svg>