<?xml version="1.0" encoding="UTF-8"?>
<svg width="18px" height="18px" viewBox="0 0 18 18" version="1.1" xmlns="http://www.w3.org/2000/svg" xmlns:xlink="http://www.w3.org/1999/xlink">
    <!-- Generator: sketchtool 53.1 (72631) - https://sketchapp.com -->
    <title>BF3B03BC-A7AF-4B8D-8AA7-4094BFC8D7E5</title>
    <desc>Created with sketchtool.</desc>
    <g id="Desktop" stroke="none" stroke-width="1" fill="none" fill-rule="evenodd">
        <g id="Homepage-desktop-sign-up-and-log-in" transform="translate(-579.000000, -237.000000)" fill-rule="nonzero">
            <g id="Group-3" transform="translate(403.000000, 94.000000)">
                <g id="Group-2" transform="translate(176.000000, 140.000000)">
                    <g id="Group-12">
                        <g id="search" transform="translate(0.000000, 3.000000)">
                            <path d="M4.28571429,11.27929 L3.61258482,13.6648758 L1.15231213,13.7142857 C0.417051707,12.4196253 0,10.9383691 0,9.36428123 C0,7.84214898 0.389933148,6.40675292 1.08111647,5.14285714 L1.08164524,5.14285714 L3.27197875,5.52408044 L4.23147717,7.59097619 C4.03065631,8.1467834 3.92120007,8.74343084 3.92120007,9.36428123 C3.9212756,10.0380913 4.04984326,10.6836824 4.28571429,11.27929 Z" id="Path" fill="#FBBB00"></path>
                            <path d="M17.8468679,7.71428571 C17.9475181,8.25067976 18,8.80463494 18,9.37078247 C18,10.0056159 17.9340296,10.6248625 17.8083537,11.2221836 C17.38172,13.2548074 16.2669331,15.0296946 14.7226367,16.2857143 L14.7221574,16.2852294 L12.2215127,16.1561359 L11.8675936,13.9208144 C12.8923088,13.3127903 13.6931286,12.3612676 14.1149695,11.2221836 L9.42857143,11.2221836 L9.42857143,7.71428571 L14.1833363,7.71428571 L17.8468679,7.71428571 L17.8468679,7.71428571 Z" id="Path" fill="#518EF8"></path>
                            <path d="M14.5709309,16.0918289 L14.5714286,16.0923028 C13.0117476,17.2858574 11.030461,18 8.87369209,18 C5.40773823,18 2.39435531,16.1556309 0.857142857,13.4414221 L3.80653304,11.1428571 C4.57512149,13.0957742 6.55388389,14.4859813 8.87369209,14.4859813 C9.87080575,14.4859813 10.8049577,14.2293516 11.6065379,13.7813498 L14.5709309,16.0918289 Z" id="Path" fill="#28B446"></path>
                            <path d="M14.5714286,1.95664155 L11.6609243,4.21074998 C10.8419907,3.7265031 9.87394003,3.44676472 8.83682306,3.44676472 C6.49499243,3.44676472 4.50512601,4.87291259 3.78442236,6.85714286 L0.857634182,4.59041864 L0.857142857,4.59041864 C2.35238534,1.86325155 5.36455879,0 8.83682306,0 C11.016727,0 13.0154724,0.734570565 14.5714286,1.95664155 Z" id="Path" fill="#F14336"></path>
                        </g>
                    </g>
                </g>
            </g>
        </g>
    </g>
</svg>