<?xml version="1.0" encoding="UTF-8"?>
<svg width="9px" height="9px" viewBox="0 0 9 9" version="1.1" xmlns="http://www.w3.org/2000/svg" xmlns:xlink="http://www.w3.org/1999/xlink">
    <!-- Generator: sketchtool 53.1 (72631) - https://sketchapp.com -->
    <title>A63ACD85-2C54-4BEF-94BA-D45848D783BE</title>
    <desc>Created with sketchtool.</desc>
    <g id="Symbols" stroke="none" stroke-width="1" fill="none" fill-rule="evenodd">
        <g id="Room-Desktop" transform="translate(0.000000, -260.000000)" fill="#FF5722">
            <g id="Group-24">
                <g id="Group-20" transform="translate(0.000000, 256.000000)">
                    <path d="M8.97071075,7.42068726 C8.93322052,7.30822631 8.83949492,7.20513711 8.72702421,7.15827838 C8.27714137,6.96147171 7.09619891,6.88649774 6.07458995,6.84901076 C5.75592294,5.92120791 5.24043218,4.55293301 4.80929445,4.13120444 C4.72494142,4.04685873 4.61247071,4 4.5,4 C4.38752929,4 4.27505858,4.04685873 4.18133299,4.13120444 C3.75956782,4.55293301 3.24407706,5.92120791 2.92541005,6.84901076 C1.90380109,6.88649774 0.722858631,6.96147171 0.272975788,7.15827838 C0.151132518,7.20513711 0.0667794845,7.30822631 0.0292892476,7.42068726 C-0.0175735486,7.54251996 -0.00820098933,7.68309615 0.0574069253,7.7955571 C0.347956261,8.32974662 1.08838844,9.12634502 2.0162718,9.91357168 C1.76321271,10.9444637 1.59450664,11.8628948 1.54764384,12.5095453 C1.53827128,12.6782367 1.61325176,12.8281847 1.75384015,12.9219021 C1.88505598,13.0156196 2.0631346,13.0249913 2.20372299,12.9500174 C2.3630565,12.8562999 2.54113512,12.7719542 2.71921375,12.6876085 C3.20658683,12.4439431 3.79705806,12.1721624 4.5,11.7316904 C5.20294194,12.1721624 5.79341317,12.4439431 6.28078625,12.6876085 C6.45886488,12.7719542 6.6369435,12.8562999 6.79627701,12.9500174 C6.86188493,12.9781326 6.92749284,12.9968761 7.00247331,12.9968761 C7.08682635,12.9968761 7.17117938,12.9687608 7.24615985,12.9219021 C7.38674824,12.8281847 7.46172872,12.6782367 7.45235616,12.5095453 C7.40549336,11.8628948 7.23678729,10.9444637 6.9837282,9.91357168 C7.91161156,9.12634502 8.65204374,8.32974662 8.94259307,7.7955571 C9.00820099,7.68309615 9.01757355,7.54251996 8.97071075,7.42068726 L8.97071075,7.42068726 Z" id="star"></path>
                </g>
            </g>
        </g>
    </g>
</svg>