<?xml version="1.0" encoding="UTF-8"?>
<svg width="27px" height="22px" viewBox="0 0 27 22" version="1.1" xmlns="http://www.w3.org/2000/svg" xmlns:xlink="http://www.w3.org/1999/xlink">
    <!-- Generator: sketchtool 53.1 (72631) - https://sketchapp.com -->
    <title>092DE64F-0014-4DDD-9B54-FCA37DD3BA57</title>
    <desc>Created with sketchtool.</desc>
    <g id="Desktop" stroke="none" stroke-width="1" fill="none" fill-rule="evenodd">
        <g id="Homepage-Desktop--1100" transform="translate(-664.000000, -3415.000000)" fill="#969CA6">
            <g id="Social-networks" transform="translate(592.000000, 3411.000000)">
                <path d="M95.8134518,7.471875 C96.9612944,6.784375 97.8350254,5.7015625 98.2461929,4.4125 C97.1840102,5.0484375 95.9847716,5.5125 94.7341371,5.753125 C93.7233503,4.6703125 92.284264,4 90.6909898,4 C87.6243655,4 85.1573604,6.4921875 85.1573604,9.5515625 C85.1573604,9.98125 85.2087563,10.4109375 85.2944162,10.8234375 C80.7030457,10.5828125 76.6085025,8.3828125 73.8845178,5.0140625 C73.4048223,5.8390625 73.1307107,6.784375 73.1307107,7.815625 C73.1307107,9.740625 74.1072335,11.4421875 75.5977157,12.4390625 C74.6897208,12.4046875 73.8331218,12.146875 73.0964467,11.734375 L73.0964467,11.803125 C73.0964467,14.5015625 74.9980964,16.7359375 77.5336294,17.2515625 C77.071066,17.371875 76.5742386,17.440625 76.0774112,17.440625 C75.7176396,17.440625 75.375,17.40625 75.0323604,17.3546875 C75.7347716,19.5546875 77.7734772,21.153125 80.2062183,21.2046875 C78.3045685,22.7 75.9232234,23.5765625 73.3362944,23.5765625 C72.873731,23.5765625 72.4454315,23.559375 72,23.5078125 C74.4498731,25.0890625 77.3623096,26 80.4974619,26 C90.6738579,26 96.2417513,17.54375 96.2417513,10.2046875 C96.2417513,9.9640625 96.2417513,9.7234375 96.2246193,9.4828125 C97.303934,8.6921875 98.2461929,7.7125 99,6.6125 C98.0063452,7.0421875 96.9270305,7.3515625 95.8134518,7.471875 Z" id="Twitter"></path>
            </g>
        </g>
    </g>
</svg>