<?xml version="1.0" encoding="UTF-8"?>
<svg width="32px" height="32px" viewBox="0 0 32 32" version="1.1" xmlns="http://www.w3.org/2000/svg" xmlns:xlink="http://www.w3.org/1999/xlink">
    <!-- Generator: sketchtool 53 (72520) - https://sketchapp.com -->
    <title>9AA3D9EF-98D3-4184-BDB1-BDBE95D7C778</title>
    <desc>Created with sketchtool.</desc>
    <g id="Mobile" stroke="none" stroke-width="1" fill="none" fill-rule="evenodd">
        <g id="Home-Page-Mobile" transform="translate(-304.000000, -16.000000)" fill="#252B33">
            <g id="User" transform="translate(304.000000, 16.000000)">
                <g id="user">
                    <path d="M16,0 C7.17775,0 0,7.17775 0,16 C0,24.82225 7.17775,32 16,32 C24.82225,32 32,24.82225 32,16 C32,7.17775 24.82225,0 16,0 Z M16,30.6666875 C11.6149375,30.6666875 7.684,28.7224375 4.9940625,25.662125 C5.07075,25.6156875 5.1480625,25.5651875 5.2239375,25.5260625 C7.7649375,24.221375 11.69725,22.6666875 16,22.6666875 C20.30275,22.6666875 24.235,24.221375 26.775375,25.5254375 C26.851625,25.5648125 26.929125,25.615375 27.006,25.6620625 C24.316,28.7223125 20.3850625,30.6666875 16,30.6666875 Z M27.3854375,24.339875 C24.7135625,22.968125 20.569,21.3333125 16,21.3333125 C11.431,21.3333125 7.2864375,22.968125 4.6139375,24.3405 C4.45975,24.419875 4.3075625,24.511125 4.153375,24.6113125 C2.38825,22.18975 1.3333125,19.21925 1.3333125,16 C1.3333125,7.91275 7.91275,1.3333125 16,1.3333125 C24.08725,1.3333125 30.6666875,7.91275 30.6666875,16 C30.6666875,19.21925 29.6118125,22.189875 27.846625,24.6113125 C27.692375,24.511 27.5400625,24.4195 27.3854375,24.339875 Z" id="Shape" fill-rule="nonzero"></path>
                    <path d="M16,4.62427746 C11.7675121,4.62427746 8.32369942,8.06804162 8.32369942,12.3006093 C8.32369942,16.533177 11.7675121,19.9768786 16,19.9768786 C20.2324879,19.9768786 23.6763006,16.5331144 23.6763006,12.3005467 C23.6763006,8.06797904 20.2324879,4.62427746 16,4.62427746 Z M16,18.6418889 C12.5034337,18.6418889 9.65874631,15.7971898 9.65874631,12.3006093 C9.65874631,8.8040288 12.5034337,5.95926721 16,5.95926721 C19.4965663,5.95926721 22.3412537,8.80396622 22.3412537,12.3005467 C22.3412537,15.7971273 19.4965663,18.6418889 16,18.6418889 Z" id="Shape" fill-rule="nonzero"></path>
                </g>
            </g>
        </g>
    </g>
</svg>