<?xml version="1.0" encoding="UTF-8"?>
<svg width="26px" height="26px" viewBox="0 0 26 26" version="1.1" xmlns="http://www.w3.org/2000/svg" xmlns:xlink="http://www.w3.org/1999/xlink">
    <!-- Generator: sketchtool 53 (72520) - https://sketchapp.com -->
    <title>5CC83EBB-C9EE-424D-972A-6364D0EC542D</title>
    <desc>Created with sketchtool.</desc>
    <g id="Mobile" stroke="none" stroke-width="1" fill="none" fill-rule="evenodd">
        <g id="Mobile-menu" transform="translate(-302.000000, -405.000000)" fill="#252B33">
            <g id="User" transform="translate(302.000000, 405.000000)">
                <g id="user">
                    <path d="M13,0 C5.83192188,0 0,5.83192188 0,13 C0,20.1680781 5.83192188,26 13,26 C20.1680781,26 26,20.1680781 26,13 C26,5.83192188 20.1680781,0 13,0 Z M13,24.9166836 C9.43713672,24.9166836 6.24325,23.3369805 4.05767578,20.8504766 C4.11998438,20.8127461 4.18280078,20.7717148 4.24444922,20.7399258 C6.30901172,19.6798672 9.50401563,18.4166836 13,18.4166836 C16.4959844,18.4166836 19.6909375,19.6798672 21.7549922,20.739418 C21.8169453,20.7714102 21.8799141,20.8124922 21.942375,20.8504258 C19.75675,23.3368789 16.5628633,24.9166836 13,24.9166836 Z M22.250668,19.7761484 C20.0797695,18.6616016 16.7123125,17.3333164 13,17.3333164 C9.2876875,17.3333164 5.92023047,18.6616016 3.74882422,19.7766563 C3.62354688,19.8411484 3.49989453,19.9152891 3.37461719,19.9966914 C1.94045312,18.0291719 1.08331641,15.6156406 1.08331641,13 C1.08331641,6.42910938 6.42910938,1.08331641 13,1.08331641 C19.5708906,1.08331641 24.9166836,6.42910938 24.9166836,13 C24.9166836,15.6156406 24.0595977,18.0292734 22.6253828,19.9966914 C22.5000547,19.9151875 22.3763008,19.8408438 22.250668,19.7761484 Z" id="Shape" fill-rule="nonzero"></path>
                    <path d="M13,3.75722543 C9.56110361,3.75722543 6.76300578,6.55528382 6.76300578,9.99424508 C6.76300578,13.4332063 9.56110361,16.2312139 13,16.2312139 C16.4388964,16.2312139 19.2369942,13.4331555 19.2369942,9.99419423 C19.2369942,6.55523297 16.4388964,3.75722543 13,3.75722543 Z M13,15.1465347 C10.1590399,15.1465347 7.84773138,12.8352168 7.84773138,9.99424508 C7.84773138,7.1532734 10.1590399,4.84190461 13,4.84190461 C15.8409601,4.84190461 18.1522686,7.15322256 18.1522686,9.99419423 C18.1522686,12.8351659 15.8409601,15.1465347 13,15.1465347 Z" id="Shape" fill-rule="nonzero"></path>
                </g>
            </g>
        </g>
    </g>
</svg>