<?xml version="1.0" encoding="UTF-8"?>
<svg width="18px" height="18px" viewBox="0 0 18 18" version="1.1" xmlns="http://www.w3.org/2000/svg" xmlns:xlink="http://www.w3.org/1999/xlink">
    <!-- Generator: sketchtool 53 (72520) - https://sketchapp.com -->
    <title>A5FC10B6-95C0-4620-92AB-EC949E7DA61C</title>
    <desc>Created with sketchtool.</desc>
    <g id="Mobile" stroke="none" stroke-width="1" fill="none" fill-rule="evenodd">
        <g id="Log-in-Mobile-(1)" transform="translate(-294.000000, -222.000000)" fill="#7F7E79" fill-rule="nonzero">
            <g id="Group-3" transform="translate(24.000000, 207.000000)">
                <g id="Group-2">
                    <g id="user-copy-3" transform="translate(270.000000, 15.000000)">
                        <path d="M9,0 C4.03748438,0 0,4.03748438 0,9 C0,13.9625156 4.03748438,18 9,18 C13.9625156,18 18,13.9625156 18,9 C18,4.03748438 13.9625156,0 9,0 Z M9,17.2500117 C6.53340234,17.2500117 4.32225,16.1563711 2.80916016,14.4349453 C2.85229688,14.4088242 2.89578516,14.380418 2.93846484,14.3584102 C4.36777734,13.6245234 6.57970313,12.7500117 9,12.7500117 C11.4202969,12.7500117 13.6321875,13.6245234 15.0611484,14.3580586 C15.1040391,14.380207 15.1476328,14.4086484 15.190875,14.4349102 C13.67775,16.1563008 11.4665977,17.2500117 9,17.2500117 Z M15.4043086,13.6911797 C13.9013789,12.9195703 11.5700625,11.9999883 9,11.9999883 C6.4299375,11.9999883 4.09862109,12.9195703 2.59533984,13.6915313 C2.50860937,13.7361797 2.42300391,13.7875078 2.33627344,13.8438633 C1.34339062,12.4817344 0.749988281,10.8108281 0.749988281,9 C0.749988281,4.45092188 4.45092188,0.749988281 9,0.749988281 C13.5490781,0.749988281 17.2500117,4.45092188 17.2500117,9 C17.2500117,10.8108281 16.6566445,12.4818047 15.6637266,13.8438633 C15.5769609,13.7874375 15.4912852,13.7359688 15.4043086,13.6911797 Z" id="Shape"></path>
                        <path d="M9,2.60115607 C6.61922557,2.60115607 4.68208092,4.53827341 4.68208092,6.91909274 C4.68208092,9.29991208 6.61922557,11.2369942 9,11.2369942 C11.3807744,11.2369942 13.3179191,9.29987688 13.3179191,6.91905754 C13.3179191,4.53823821 11.3807744,2.60115607 9,2.60115607 Z M9,10.4860625 C7.03318147,10.4860625 5.4330448,8.88591929 5.4330448,6.91909274 C5.4330448,4.9522662 7.03318147,3.3520878 9,3.3520878 C10.9668185,3.3520878 12.5669552,4.952231 12.5669552,6.91905754 C12.5669552,8.88588409 10.9668185,10.4860625 9,10.4860625 Z" id="Shape"></path>
                    </g>
                </g>
            </g>
        </g>
    </g>
</svg>